<?xml version="1.0" encoding="UTF-8" standalone="no"?>
<svg
   data-name="Layer 1"
   width="845"
   height="505.29599"
   viewBox="0 0 845.00002 505.29599"
   version="1.1"
   id="svg306"
   sodipodi:docname="undraw_team_collaboration_reow29.svg"
   inkscape:version="1.2.1 (9c6d41e410, 2022-07-14)"
   xmlns:inkscape="http://www.inkscape.org/namespaces/inkscape"
   xmlns:sodipodi="http://sodipodi.sourceforge.net/DTD/sodipodi-0.dtd"
   xmlns="http://www.w3.org/2000/svg"
   xmlns:svg="http://www.w3.org/2000/svg">
  <defs
     id="defs310" />
  <sodipodi:namedview
     id="namedview308"
     pagecolor="#ffffff"
     bordercolor="#cccccc"
     borderopacity="1"
     inkscape:showpageshadow="0"
     inkscape:pageopacity="1"
     inkscape:pagecheckerboard="0"
     inkscape:deskcolor="#d1d1d1"
     showgrid="false"
     showguides="true"
     inkscape:zoom="0.95098561"
     inkscape:cx="359.62689"
     inkscape:cy="183.49384"
     inkscape:window-width="1920"
     inkscape:window-height="1013"
     inkscape:window-x="-9"
     inkscape:window-y="-9"
     inkscape:window-maximized="1"
     inkscape:current-layer="svg306" />
  <rect
     style="fill:#6c63ff;stroke:none;stroke-width:0.976364;fill-opacity:1"
     id="rect1201"
     width="76.711845"
     height="505.22784"
     x="0"
     y="0" />
  <path
     d="m 59.2951,422.00742 -2.92,14.65 c -0.22,1.12 -0.45,2.26 -0.7,3.39 a 14.28772,14.28772 0 0 0 -7.34,0.41 68.511,68.511 0 0 1 5.04,8.43 c -1.84,5.67 -4.54,10.91 -9.06,14.7 a 22.71964,22.71964 0 0 1 -21.95,3.86 l 0.13,-0.58 c -4.86,-9.43 -2.22,-21.32 3.82,-30.03 a 58.3846,58.3846 0 0 1 10.85,-11.47 c 4.07995,-3.4 8.49,-6.45 12.86,-9.46 a 5.99007,5.99007 0 0 1 9.27,6.1 z"
     fill="#e4e4e4"
     id="path2" />
  <path
     id="b311a411-101b-4365-a37b-2cdfec47a637-773"
     data-name="a4b268fa-75d0-4ac1-9d87-14bdca948464-2189"
     d="m 23.40497,502.69726 c -1.229,-8.953 -2.493,-18.02 -1.631,-27.069 0.766,-8.036 3.217,-15.885 8.209,-22.321 a 37.13173,37.13173 0 0 1 9.527,-8.633 c 0.953,-0.6 1.829,0.909 0.881,1.507 a 35.29987,35.29987 0 0 0 -13.963,16.847 c -3.04,7.732 -3.528,16.161 -3,24.374 0.317,4.967 0.988,9.9 1.665,14.83 a 0.9,0.9 0 0 1 -0.61,1.074 0.878,0.878 0 0 1 -1.074,-0.61 z"
     fill="#f2f2f2" />
  <path
     d="m 33.95233,53.63394 q 64.2559,-1.1173 128.52565,-0.321 64.26043,0.801 128.47773,3.52415 36.035,1.5282 72.04082,3.66151 c 1.92853,0.11411 1.92189,-2.88628 0,-3 Q 298.84314,53.70237 234.5961,51.8175 170.35818,49.9377 106.08318,49.98022 q -36.06741,0.024 -72.13085,0.65375 c -1.92833,0.0335 -1.93442,3.03363 0,3 z"
     fill="#e6e6e6"
     id="path5" />
  <path
     d="m 332.48774,34.82314 18.73149,-1.39412 c 1.91356,-0.14242 1.92908,-3.14357 0,-3 l -18.73149,1.39412 c -1.91356,0.14242 -1.92908,3.14358 0,3 z"
     fill="#e6e6e6"
     id="path7" />
  <path
     d="m 332.48774,52.82314 18.73149,-1.39412 c 1.91356,-0.14242 1.92908,-3.14357 0,-3 l -18.73149,1.39412 c -1.91356,0.14242 -1.92908,3.14358 0,3 z"
     fill="#e6e6e6"
     id="path9" />
  <path
     d="m 331.07877,44.60294 26.63191,2.4195 c 1.92205,0.17461 1.9102,-2.82646 0,-3 l -26.63191,-2.4195 c -1.922,-0.17461 -1.9102,2.82646 0,3 z"
     fill="#e6e6e6"
     id="path11" />
  <path
     d="m 45.03786,30.78859 a 6.6356,6.6356 0 0 0 -6.13315,4.00554 5.97374,5.97374 0 0 0 1.37464,7.09581 7.1022,7.1022 0 0 0 6.72877,1.367 6.00261,6.00261 0 0 0 4.02336,-5.64266 6.70726,6.70726 0 0 0 -4.17854,-6.469 1.50605,1.50605 0 0 0 -1.84518,1.04766 1.54254,1.54254 0 0 0 1.04766,1.84518 c 0.26142,0.101 -0.23881,-0.1285 0.005,0.004 0.10036,0.0547 0.20261,0.10408 0.30116,0.16246 0.0838,0.0496 0.164,0.10394 0.2455,0.15713 0.28,0.18276 -0.13669,-0.13416 0.0423,0.0301 0.15522,0.14248 0.309,0.28149 0.45006,0.43871 0.0533,0.0594 0.26234,0.2247 0.0999,0.10919 -0.12426,-0.0884 -0.0479,-0.0676 -5e-5,0.003 0.0363,0.0539 0.0748,0.10625 0.11066,0.16044 a 5.3458,5.3458 0 0 1 0.31836,0.55036 c 0.0221,0.0439 0.0422,0.0888 0.0646,0.13243 0.042,0.0818 0.10289,0.10324 0.004,7.7e-4 -0.0943,-0.0979 -0.0343,-0.0912 -5.2e-4,0.003 0.0222,0.0619 0.0464,0.12308 0.068,0.18523 a 5.782,5.782 0 0 1 0.17685,0.6173 c 0.022,0.0966 0.0397,0.19367 0.0586,0.29082 0.067,0.34448 -0.01,-0.21415 0.006,0.0417 0.0135,0.21364 0.0293,0.425 0.0255,0.63949 q -0.003,0.14723 -0.0128,0.29409 c -0.003,0.0488 -0.009,0.0976 -0.0121,0.14639 -0.0155,0.23538 -0.0161,-0.086 0.0169,-0.108 a 2.77013,2.77013 0 0 0 -0.13555,0.617 c -0.0269,0.0933 -0.0588,0.18448 -0.0887,0.27672 -0.10435,0.32182 0.098,-0.17543 -0.0132,0.0445 a 5.48681,5.48681 0 0 1 -0.30646,0.5497 c -0.0489,0.0742 -0.23316,0.24186 -0.0825,0.1252 0.16353,-0.1266 -0.0857,0.0914 -0.13893,0.14751 q -0.10248,0.10809 -0.21273,0.20867 a 1.70367,1.70367 0 0 1 -0.14877,0.1293 c -0.01,-0.005 0.25061,-0.17374 0.1104,-0.0843 -0.17824,0.11368 -0.347,0.23528 -0.53484,0.33425 -0.0219,0.0115 -0.262,0.12277 -0.261,0.12671 -0.0104,-0.0405 0.30871,-0.11234 0.0897,-0.0416 -0.046,0.0149 -0.0911,0.0328 -0.13695,0.0483 a 4.90024,4.90024 0 0 1 -0.60932,0.1623 c -0.0473,0.009 -0.0972,0.0142 -0.14378,0.0262 -0.15506,0.0401 0.14818,-0.0235 0.15729,-0.0183 a 1.30824,1.30824 0 0 0 -0.34135,0.0302 5.5808,5.5808 0 0 1 -0.639,-6e-5 c -0.0492,-0.003 -0.0984,-0.008 -0.14761,-0.0106 -0.1143,-0.007 -0.19817,-0.089 -0.0461,4e-4 0.11735,0.069 0.10759,0.0187 0.004,-5.4e-4 -0.0486,-0.009 -0.0975,-0.0166 -0.14608,-0.0257 a 5.82144,5.82144 0 0 1 -0.624,-0.15284 c -0.11033,-0.0336 -0.21843,-0.0727 -0.32727,-0.11076 a 0.86911,0.86911 0 0 1 -0.138,-0.0531 c -6.6e-4,-0.0123 0.28052,0.13436 0.13207,0.0544 -0.18737,-0.101 -0.38113,-0.18564 -0.56409,-0.296 -0.0976,-0.0589 -0.19141,-0.12294 -0.28634,-0.186 a 0.9227,0.9227 0 0 1 -0.11872,-0.085 c 0.003,-0.0127 0.23256,0.1999 0.11213,0.0851 -0.1523,-0.14515 -0.31522,-0.27508 -0.45946,-0.42964 -0.033,-0.0353 -0.0642,-0.0724 -0.0971,-0.10779 l -0.0318,-0.0364 q -0.12195,-0.14906 -0.005,0.001 c 0.0795,0.0234 0.0759,0.11067 4.4e-4,-0.003 -0.0269,-0.0404 -0.0554,-0.0796 -0.0823,-0.12 A 3.13367,3.13367 0 0 1 41.45236,38.5489 c 0.007,-0.006 0.12994,0.36093 0.0362,0.0843 -0.0177,-0.0523 -0.0376,-0.10369 -0.055,-0.15609 q -0.0517,-0.15588 -0.091,-0.31524 c -0.0259,-0.10523 -0.0392,-0.21379 -0.0654,-0.31859 -0.0441,-0.17666 0.0257,0.13937 0.0178,0.1315 -0.025,-0.0247 -0.0144,-0.17791 -0.0162,-0.21457 -0.012,-0.23537 0.0148,-0.46383 0.019,-0.69778 0.003,-0.18124 -0.015,0.14125 -0.0188,0.1318 a 0.5081,0.5081 0 0 1 0.0285,-0.15932 c 0.0272,-0.12339 0.0524,-0.24665 0.0857,-0.36867 q 0.0571,-0.20957 0.13146,-0.414 c 0.0185,-0.051 0.0411,-0.10125 0.0583,-0.15267 0.0631,-0.18837 -0.125,0.22748 -0.0213,0.0576 0.14271,-0.23369 0.249,-0.48658 0.40052,-0.71737 0.0359,-0.0547 0.25421,-0.35945 0.13835,-0.20559 -0.11539,0.15325 0.11857,-0.13721 0.16286,-0.18652 0.184,-0.20489 0.40037,-0.3731 0.59087,-0.56928 0.11276,-0.11613 -0.0787,0.0572 -0.09,0.0653 0.059,-0.0421 0.11677,-0.0859 0.1765,-0.12706 q 0.15621,-0.10767 0.32008,-0.20359 c 0.12306,-0.0721 0.26221,-0.12586 0.38148,-0.20218 0.1409,-0.0902 -0.10776,0.0396 -0.11221,0.0423 a 1.11642,1.11642 0 0 1 0.20093,-0.0766 c 0.11615,-0.0412 0.62132,-0.25917 0.72729,-0.191 -0.005,-0.003 -0.38358,0.0305 -0.0774,0.0108 0.0724,-0.005 0.14442,-0.0117 0.2169,-0.0147 0.14658,-0.006 0.29266,-0.002 0.43909,0.005 a 1.50993,1.50993 0 0 0 1.5,-1.5 1.5333,1.5333 0 0 0 -1.5,-1.5 z"
     fill="#e6e6e6"
     id="path13" />
  <path
     d="m 66.03786,30.78859 a 6.6356,6.6356 0 0 0 -6.13315,4.00554 5.97374,5.97374 0 0 0 1.37464,7.09581 7.1022,7.1022 0 0 0 6.72877,1.367 6.00261,6.00261 0 0 0 4.02336,-5.64266 6.70726,6.70726 0 0 0 -4.17854,-6.469 1.50605,1.50605 0 0 0 -1.84518,1.04766 1.54254,1.54254 0 0 0 1.04766,1.84518 c 0.26142,0.101 -0.23881,-0.1285 0.005,0.004 0.10036,0.0547 0.20261,0.10408 0.30116,0.16246 0.0838,0.0496 0.164,0.10394 0.2455,0.15713 0.28,0.18276 -0.13669,-0.13416 0.0423,0.0301 0.15522,0.14248 0.309,0.28149 0.45006,0.43871 0.0533,0.0594 0.26234,0.2247 0.0999,0.10919 -0.12426,-0.0884 -0.0479,-0.0676 -5e-5,0.003 0.0363,0.0539 0.0748,0.10625 0.11066,0.16044 a 5.3458,5.3458 0 0 1 0.31836,0.55036 c 0.0221,0.0439 0.0422,0.0888 0.0646,0.13243 0.042,0.0818 0.10289,0.10324 0.004,7.7e-4 -0.0943,-0.0979 -0.0343,-0.0912 -5.2e-4,0.003 0.0222,0.0619 0.0464,0.12308 0.068,0.18523 a 5.782,5.782 0 0 1 0.17685,0.6173 c 0.022,0.0966 0.0397,0.19367 0.0586,0.29082 0.067,0.34448 -0.01,-0.21415 0.006,0.0417 0.0135,0.21364 0.0293,0.425 0.0255,0.63949 q -0.003,0.14723 -0.0128,0.29409 c -0.003,0.0488 -0.009,0.0976 -0.0121,0.14639 -0.0155,0.23538 -0.0161,-0.086 0.0169,-0.108 a 2.77013,2.77013 0 0 0 -0.13555,0.617 c -0.0269,0.0933 -0.0588,0.18448 -0.0887,0.27672 -0.10435,0.32182 0.098,-0.17543 -0.0132,0.0445 a 5.48681,5.48681 0 0 1 -0.30646,0.5497 c -0.0489,0.0742 -0.23316,0.24186 -0.0825,0.1252 0.16353,-0.1266 -0.0857,0.0914 -0.13893,0.14751 q -0.10248,0.10809 -0.21273,0.20867 a 1.70367,1.70367 0 0 1 -0.14877,0.1293 c -0.01,-0.005 0.25061,-0.17374 0.1104,-0.0843 -0.17824,0.11368 -0.347,0.23528 -0.53484,0.33425 -0.0219,0.0115 -0.262,0.12277 -0.261,0.12671 -0.0104,-0.0405 0.30871,-0.11234 0.0897,-0.0416 -0.046,0.0149 -0.0911,0.0328 -0.13695,0.0483 a 4.90024,4.90024 0 0 1 -0.60932,0.1623 c -0.0473,0.009 -0.0972,0.0142 -0.14378,0.0262 -0.15506,0.0401 0.14818,-0.0235 0.15729,-0.0183 a 1.30824,1.30824 0 0 0 -0.34135,0.0302 5.5808,5.5808 0 0 1 -0.639,-6e-5 c -0.0492,-0.003 -0.0984,-0.008 -0.14761,-0.0106 -0.1143,-0.007 -0.19817,-0.089 -0.0461,4e-4 0.11735,0.069 0.10759,0.0187 0.004,-5.4e-4 -0.0486,-0.009 -0.0975,-0.0166 -0.14608,-0.0257 a 5.82144,5.82144 0 0 1 -0.624,-0.15284 c -0.11033,-0.0336 -0.21843,-0.0727 -0.32727,-0.11076 a 0.86911,0.86911 0 0 1 -0.138,-0.0531 c -6.6e-4,-0.0123 0.28052,0.13436 0.13207,0.0544 -0.18737,-0.101 -0.38113,-0.18564 -0.56409,-0.296 -0.0976,-0.0589 -0.19141,-0.12294 -0.28634,-0.186 a 0.9227,0.9227 0 0 1 -0.11872,-0.085 c 0.003,-0.0127 0.23256,0.1999 0.11213,0.0851 -0.1523,-0.14515 -0.31522,-0.27508 -0.45946,-0.42964 -0.033,-0.0353 -0.0642,-0.0724 -0.0971,-0.10779 l -0.0318,-0.0364 q -0.12195,-0.14906 -0.005,0.001 c 0.0795,0.0234 0.0759,0.11067 4.4e-4,-0.003 -0.0269,-0.0404 -0.0554,-0.0796 -0.0823,-0.12 A 3.13367,3.13367 0 0 1 62.45236,38.5489 c 0.007,-0.006 0.12994,0.36093 0.0362,0.0843 -0.0177,-0.0523 -0.0376,-0.10369 -0.055,-0.15609 q -0.0517,-0.15588 -0.091,-0.31524 c -0.0259,-0.10523 -0.0392,-0.21379 -0.0654,-0.31859 -0.0441,-0.17666 0.0257,0.13937 0.0178,0.1315 -0.025,-0.0247 -0.0144,-0.17791 -0.0162,-0.21457 -0.012,-0.23537 0.0148,-0.46383 0.019,-0.69778 0.003,-0.18124 -0.015,0.14125 -0.0188,0.1318 a 0.5081,0.5081 0 0 1 0.0285,-0.15932 c 0.0272,-0.12339 0.0524,-0.24665 0.0857,-0.36867 q 0.0571,-0.20957 0.13146,-0.414 c 0.0185,-0.051 0.0411,-0.10125 0.0583,-0.15267 0.0631,-0.18837 -0.125,0.22748 -0.0213,0.0576 0.14271,-0.23369 0.249,-0.48658 0.40052,-0.71737 0.0359,-0.0547 0.25421,-0.35945 0.13835,-0.20559 -0.11539,0.15325 0.11857,-0.13721 0.16286,-0.18652 0.184,-0.20489 0.40037,-0.3731 0.59087,-0.56928 0.11276,-0.11613 -0.0787,0.0572 -0.09,0.0653 0.059,-0.0421 0.11677,-0.0859 0.1765,-0.12706 q 0.15621,-0.10767 0.32008,-0.20359 c 0.12306,-0.0721 0.26221,-0.12586 0.38148,-0.20218 0.1409,-0.0902 -0.10776,0.0396 -0.11221,0.0423 a 1.11642,1.11642 0 0 1 0.20093,-0.0766 c 0.11615,-0.0412 0.62132,-0.25917 0.72729,-0.191 -0.005,-0.003 -0.38358,0.0305 -0.0774,0.0108 0.0724,-0.005 0.14442,-0.0117 0.2169,-0.0147 0.14658,-0.006 0.29266,-0.002 0.43909,0.005 a 1.50993,1.50993 0 0 0 1.5,-1.5 1.5333,1.5333 0 0 0 -1.5,-1.5 z"
     fill="#e6e6e6"
     id="path15" />
  <path
     d="m 87.03786,30.78859 a 6.6356,6.6356 0 0 0 -6.13315,4.00554 5.97374,5.97374 0 0 0 1.37464,7.09581 7.1022,7.1022 0 0 0 6.72877,1.367 6.00261,6.00261 0 0 0 4.02336,-5.64266 6.70726,6.70726 0 0 0 -4.17854,-6.469 1.50605,1.50605 0 0 0 -1.84518,1.04766 1.54254,1.54254 0 0 0 1.04766,1.84518 c 0.26142,0.101 -0.23881,-0.1285 0.005,0.004 0.10036,0.0547 0.20261,0.10408 0.30116,0.16246 0.0838,0.0496 0.164,0.10394 0.2455,0.15713 0.28,0.18276 -0.13669,-0.13416 0.0423,0.0301 0.15522,0.14248 0.309,0.28149 0.45006,0.43871 0.0533,0.0594 0.26234,0.2247 0.0999,0.10919 -0.12426,-0.0884 -0.0479,-0.0676 -5e-5,0.003 0.0363,0.0539 0.0748,0.10625 0.11066,0.16044 a 5.3458,5.3458 0 0 1 0.31836,0.55036 c 0.0221,0.0439 0.0422,0.0888 0.0646,0.13243 0.042,0.0818 0.10289,0.10324 0.004,7.7e-4 -0.0943,-0.0979 -0.0343,-0.0912 -5.2e-4,0.003 0.0222,0.0619 0.0464,0.12308 0.068,0.18523 a 5.782,5.782 0 0 1 0.17685,0.6173 c 0.022,0.0966 0.0397,0.19367 0.0586,0.29082 0.067,0.34448 -0.01,-0.21415 0.006,0.0417 0.0135,0.21364 0.0293,0.425 0.0255,0.63949 q -0.003,0.14723 -0.0128,0.29409 c -0.003,0.0488 -0.009,0.0976 -0.0121,0.14639 -0.0155,0.23538 -0.0161,-0.086 0.0169,-0.108 a 2.77013,2.77013 0 0 0 -0.13555,0.617 c -0.0269,0.0933 -0.0588,0.18448 -0.0887,0.27672 -0.10435,0.32182 0.098,-0.17543 -0.0132,0.0445 a 5.48681,5.48681 0 0 1 -0.30646,0.5497 c -0.0489,0.0742 -0.23316,0.24186 -0.0825,0.1252 0.16353,-0.1266 -0.0857,0.0914 -0.13893,0.14751 q -0.10248,0.10809 -0.21273,0.20867 a 1.70367,1.70367 0 0 1 -0.14877,0.1293 c -0.01,-0.005 0.25061,-0.17374 0.1104,-0.0843 -0.17824,0.11368 -0.347,0.23528 -0.53484,0.33425 -0.0219,0.0115 -0.262,0.12277 -0.261,0.12671 -0.0104,-0.0405 0.30871,-0.11234 0.0897,-0.0416 -0.046,0.0149 -0.0911,0.0328 -0.13695,0.0483 a 4.90024,4.90024 0 0 1 -0.60932,0.1623 c -0.0473,0.009 -0.0972,0.0142 -0.14378,0.0262 -0.15506,0.0401 0.14818,-0.0235 0.15729,-0.0183 a 1.30824,1.30824 0 0 0 -0.34135,0.0302 5.5808,5.5808 0 0 1 -0.639,-6e-5 c -0.0492,-0.003 -0.0984,-0.008 -0.14761,-0.0106 -0.1143,-0.007 -0.19817,-0.089 -0.0461,4e-4 0.11735,0.069 0.10759,0.0187 0.004,-5.4e-4 -0.0486,-0.009 -0.0975,-0.0166 -0.14608,-0.0257 a 5.82144,5.82144 0 0 1 -0.624,-0.15284 c -0.11033,-0.0336 -0.21843,-0.0727 -0.32727,-0.11076 a 0.86911,0.86911 0 0 1 -0.138,-0.0531 c -6.6e-4,-0.0123 0.28052,0.13436 0.13207,0.0544 -0.18737,-0.101 -0.38113,-0.18564 -0.56409,-0.296 -0.0976,-0.0589 -0.19141,-0.12294 -0.28634,-0.186 a 0.9227,0.9227 0 0 1 -0.11872,-0.085 c 0.003,-0.0127 0.23256,0.1999 0.11213,0.0851 -0.1523,-0.14515 -0.31522,-0.27508 -0.45946,-0.42964 -0.033,-0.0353 -0.0642,-0.0724 -0.0971,-0.10779 l -0.0318,-0.0364 q -0.12195,-0.14906 -0.005,0.001 c 0.0795,0.0234 0.0759,0.11067 4.4e-4,-0.003 -0.0269,-0.0404 -0.0554,-0.0796 -0.0823,-0.12 A 3.13367,3.13367 0 0 1 83.45236,38.5489 c 0.007,-0.006 0.12994,0.36093 0.0362,0.0843 -0.0177,-0.0523 -0.0376,-0.10369 -0.055,-0.15609 q -0.0517,-0.15588 -0.091,-0.31524 c -0.0259,-0.10523 -0.0392,-0.21379 -0.0654,-0.31859 -0.0441,-0.17666 0.0257,0.13937 0.0178,0.1315 -0.025,-0.0247 -0.0144,-0.17791 -0.0162,-0.21457 -0.012,-0.23537 0.0148,-0.46383 0.019,-0.69778 0.003,-0.18124 -0.015,0.14125 -0.0188,0.1318 a 0.5081,0.5081 0 0 1 0.0285,-0.15932 c 0.0272,-0.12339 0.0524,-0.24665 0.0857,-0.36867 q 0.0571,-0.20957 0.13146,-0.414 c 0.0185,-0.051 0.0411,-0.10125 0.0583,-0.15267 0.0631,-0.18837 -0.125,0.22748 -0.0213,0.0576 0.14271,-0.23369 0.249,-0.48658 0.40052,-0.71737 0.0359,-0.0547 0.25421,-0.35945 0.13835,-0.20559 -0.11539,0.15325 0.11857,-0.13721 0.16286,-0.18652 0.184,-0.20489 0.40037,-0.3731 0.59087,-0.56928 0.11276,-0.11613 -0.0787,0.0572 -0.09,0.0653 0.059,-0.0421 0.11677,-0.0859 0.1765,-0.12706 q 0.15621,-0.10767 0.32008,-0.20359 c 0.12306,-0.0721 0.26221,-0.12586 0.38148,-0.20218 0.1409,-0.0902 -0.10776,0.0396 -0.11221,0.0423 a 1.11642,1.11642 0 0 1 0.20093,-0.0766 c 0.11615,-0.0412 0.62132,-0.25917 0.72729,-0.191 -0.005,-0.003 -0.38358,0.0305 -0.0774,0.0108 0.0724,-0.005 0.14442,-0.0117 0.2169,-0.0147 0.14658,-0.006 0.29266,-0.002 0.43909,0.005 a 1.50993,1.50993 0 0 0 1.5,-1.5 1.5333,1.5333 0 0 0 -1.5,-1.5 z"
     fill="#e6e6e6"
     id="path17" />
  <path
     d="M 390.41122,363 H 22.50595 A 17.56665,17.56665 0 0 1 4.95858,345.45313 V 17.54737 A 17.56708,17.56708 0 0 1 22.50595,0 h 367.90527 a 17.56707,17.56707 0 0 1 17.54736,17.54737 V 345.45313 A 17.56664,17.56664 0 0 1 390.41122,363 Z M 22.50595,2 A 15.56509,15.56509 0 0 0 6.95858,17.54737 V 345.45313 A 15.565,15.565 0 0 0 22.50595,361 h 367.90527 a 15.565,15.565 0 0 0 15.54736,-15.54687 V 17.54737 A 15.56509,15.56509 0 0 0 390.41122,2 Z"
     fill="#e6e6e6"
     id="path19" />
  <path
     d="m 21.8964,223.10594 129.37919,-0.39354 128.71909,-0.39154 72.61077,-0.22087 a 1.5009,1.5009 0 0 0 0,-3 l -129.37919,0.39355 -128.71909,0.39153 -72.61077,0.22087 a 1.5009,1.5009 0 0 0 0,3 z"
     fill="#e6e6e6"
     id="path21" />
  <path
     d="m 87.16611,220.6738 0.8,-47.237 c 0.0327,-1.93121 -2.96728,-1.93159 -3,0 l -0.8,47.237 c -0.0327,1.93121 2.96728,1.93158 3,0 z"
     fill="#e6e6e6"
     id="path23" />
  <path
     d="m 149.00142,221.18494 1.94957,-59.37448 0.557,-16.96414 c 0.0634,-1.931 -2.93667,-1.92873 -3,0 l -1.94957,59.37448 -0.557,16.96414 c -0.0634,1.931 2.93667,1.92873 3,0 z"
     fill="#e6e6e6"
     id="path25" />
  <path
     d="m 210.66985,116.70127 c -1.17594,21.03 -3.35188,83.05995 -4.52782,104.08992 -0.10787,1.929 2.89248,1.92287 3,0 1.17594,-21.03 3.35188,-83.05994 4.52782,-104.08992 0.10787,-1.929 -2.89247,-1.92287 -3,0 z"
     fill="#e6e6e6"
     id="path27" />
  <path
     d="m 272.04144,199.68908 -0.36774,20.21318 c -0.0351,1.93123 2.96486,1.9314 3,0 0.43432,-23.87319 1.54814,-23.095 1.67072,-29.83275 0.0351,-1.93123 -2.96487,-1.9314 -3,0 0,0 -0.86866,-14.25357 -1.30298,9.61957 z"
     fill="#e6e6e6"
     id="path29" />
  <path
     d="m 332.1534,146.58863 0.33928,56.70864 0.0971,16.23815 a 1.5009,1.5009 0 0 0 3,0 l -0.33928,-56.70864 -0.0971,-16.23815 a 1.5009,1.5009 0 0 0 -3,0 z"
     fill="#e6e6e6"
     id="path31" />
  <path
     d="m 22.13762,221.41823 c -2.48323,-6.82393 3.11451,-13.38719 8.8663,-16.33636 6.891,-3.53328 14.81824,-4.33414 21.78229,-7.7403 10.38228,-5.078 17.9444,-14.19152 24.67329,-23.31385 6.92579,-9.38927 13.26278,-19.46629 22.06318,-27.26763 a 44.19424,44.19424 0 0 1 16.06871,-9.29914 c 7.50226,-2.34128 15.4588,-2.50189 23.21086,-1.55834 16.01863,1.94973 30.868,8.56585 46.324,12.77089 14.57206,3.96456 30.62763,6.194 44.9307,0.0289 7.2669,-3.13229 13.20938,-8.38563 19.59206,-12.93164 a 65.29581,65.29581 0 0 1 20.40827,-9.84464 c 14.35794,-3.99257 30.03794,-2.92647 43.40518,3.823 a 58.2428,58.2428 0 0 1 27.46977,28.99246 c 6.33716,15.13848 5.5121,32.05568 3.442,47.9899 -0.5351,4.11874 -1.17191,8.22371 -1.81565,12.32661 -0.29634,1.88872 2.594,2.70228 2.89284,0.79752 2.578,-16.43077 5.14772,-33.38193 1.94028,-49.9161 a 60.45584,60.45584 0 0 0 -22.33102,-36.37657 62.04356,62.04356 0 0 0 -40.91133,-12.91137 67.07853,67.07853 0 0 0 -22.47417,4.99833 c -7.41935,3.06889 -13.702,7.61753 -20.08361,12.40377 -6.56132,4.921 -13.325,8.99143 -21.47108,10.59636 -7.90151,1.55675 -16.12137,0.97319 -23.98827,-0.49665 -16.23236,-3.03284 -31.36257,-9.98514 -47.45717,-13.54734 -14.91163,-3.30038 -31.0026,-3.63015 -44.35545,4.79389 -10.27143,6.48 -17.52933,16.53993 -24.49477,26.25395 -6.90438,9.62885 -13.89606,19.92529 -23.99209,26.50286 -6.15873,4.01242 -13.08185,5.49293 -19.97135,7.74936 -6.90729,2.26225 -13.53837,6.07871 -16.35476,13.15546 a 12.79371,12.79371 0 0 0 -0.26184,9.15423 c 0.655,1.79995 3.55524,1.02278 2.89283,-0.79752 z"
     fill="#e6e6e6"
     id="path33" />
  <polygon
     points="86.171,166.905 86.167,166.907 86.175,166.905 "
     fill="#e6e6e6"
     id="polygon35" />
  <path
     d="m 91.37252,164.14551 a 5.96169,5.96169 0 0 0 -7.22314,-2.67334 5.24684,5.24684 0 0 0 -2.98908,2.78314 c -0.0574,0.13605 -0.091,0.27912 -0.13787,0.41852 -0.065,0.1051 -0.14313,0.2 -0.20136,0.30994 a 5.95769,5.95769 0 0 0 9.29083,7.11792 6.41612,6.41612 0 0 0 1.26062,-7.95618 z m -3.75726,2.54761 c 0.0123,0.0757 0.008,0.14532 0,0 z m -0.3819,-0.86841 c -0.0147,-0.0169 -0.0129,-0.0151 0,0 z m -1.68335,0.67688 c -0.0225,-0.0347 -0.0247,-0.0405 0,0 z m 0.399,0.33826 c 0.095,0.0324 0.0574,0.0256 0,0 z m 0.17816,0.0849 0.0395,-0.0181 a 0.05015,0.05015 0 0 1 -0.028,-0.006 l 10e-4,-1.9e-4 0.0309,0.004 0.006,-0.003 -0.0179,-0.004 c 0.0155,-5.4e-4 0.0173,0.002 0.0183,0.004 0.17846,-0.0817 0.0576,-0.0424 -0.0458,-0.0104 l -0.007,-0.002 a 0.68136,0.68136 0 0 0 -0.20568,-0.066 c -0.007,-0.004 -0.0145,-0.006 -0.02,-0.0104 -0.0574,-0.0409 -0.34772,-0.26764 -0.0784,-0.0299 -0.0586,-0.0518 -0.11652,-0.1026 -0.17164,-0.15845 a 0.78291,0.78291 0 0 1 -0.088,-0.10815 q -0.053,-0.0909 -0.10278,-0.18342 l -0.005,-0.0333 c -0.004,-0.0276 -0.008,-0.0391 -0.0113,-0.0557 0.002,-0.0172 0.004,-0.0356 0.007,-0.0535 a 0.64632,0.64632 0 0 0 0.0381,-0.16767 l 0.0116,-0.0146 c 0.0431,-0.0601 0.0808,-0.13025 0.12194,-0.19275 -0.2174,0.3302 0.085,-0.0364 0.10761,-0.0829 0.004,-0.008 -0.003,-0.004 -0.001,-0.009 0.009,-0.005 0.006,-0.002 0.0167,-0.008 0.0674,-0.0397 0.13123,-0.0839 0.19965,-0.12183 0.0815,-0.0452 0.40246,-0.13629 0.0696,-0.0411 0.0756,-0.0216 0.14819,-0.0489 0.22461,-0.0688 0.0138,-0.004 0.12591,-0.0193 0.18628,-0.0301 0.053,-10e-4 0.10443,-0.003 0.10986,-0.003 0.0249,3.1e-4 0.0498,0.003 0.0747,0.004 -0.0552,0.007 0.18957,0.0603 0.26227,0.0715 0.0105,0.008 0.0159,0.0136 0.0302,0.024 0.0615,0.0449 0.13623,0.0848 0.20111,0.12677 -0.2901,-0.1875 0.004,0.0149 0.0592,0.0703 0.0331,0.0331 0.0637,0.0685 0.0948,0.10333 a 0.8089,0.8089 0 0 1 0.0773,0.106 c 0.0476,0.0872 0.0982,0.17536 0.14813,0.26111 l 0.0139,0.022 a 0.08283,0.08283 0 0 0 -4.3e-4,0.008 2.37222,2.37222 0 0 0 0.11487,0.40777 0.33315,0.33315 0 0 1 0.006,0.0339 c 0.005,0.0762 0.011,0.1521 0.0112,0.2287 l -6.7e-4,0.0155 a 1.643,1.643 0 0 0 -1.49828,-0.0107 z"
     fill="#e6e6e6"
     id="path37" />
  <path
     d="m 86.18026,166.90314 c 0.004,0.001 1.9e-4,0.001 -7.9e-4,0.001 z"
     fill="#e6e6e6"
     id="path39" />
  <path
     d="m 86.17916,166.90278 0.001,3.6e-4 z"
     fill="#e6e6e6"
     id="path41" />
  <path
     d="m 86.17947,166.90461 -0.005,7.3e-4 c 0.006,6e-4 0.004,-4e-4 0.005,-7.3e-4 z"
     fill="#e6e6e6"
     id="path43" />
  <polygon
     points="86.179,166.903 86.177,166.902 "
     fill="#e6e6e6"
     id="polygon45" />
  <polygon
     points="150.171,138.905 150.167,138.907 150.175,138.905 "
     fill="#e6e6e6"
     id="polygon47" />
  <path
     d="m 155.37252,136.14551 a 5.96169,5.96169 0 0 0 -7.22314,-2.67334 5.24684,5.24684 0 0 0 -2.98908,2.78314 c -0.0574,0.13605 -0.091,0.27912 -0.13787,0.41852 -0.065,0.1051 -0.14313,0.2 -0.20136,0.30994 a 5.95769,5.95769 0 0 0 9.29083,7.11792 6.41612,6.41612 0 0 0 1.26062,-7.95618 z m -3.75726,2.54761 c 0.0123,0.0757 0.008,0.14532 0,0 z m -0.3819,-0.86841 c -0.0147,-0.0169 -0.0129,-0.0151 0,0 z m -1.68335,0.67688 c -0.0225,-0.0347 -0.0247,-0.0405 0,0 z m 0.399,0.33826 c 0.095,0.0324 0.0574,0.0256 0,0 z m 0.17816,0.0849 0.0395,-0.0181 a 0.05015,0.05015 0 0 1 -0.028,-0.006 l 0.001,-1.9e-4 0.0309,0.004 0.006,-0.003 -0.0179,-0.004 c 0.0155,-5.4e-4 0.0173,0.002 0.0183,0.004 0.17846,-0.0817 0.0576,-0.0424 -0.0458,-0.0104 l -0.007,-0.002 a 0.68136,0.68136 0 0 0 -0.20568,-0.066 c -0.007,-0.004 -0.0145,-0.006 -0.02,-0.0104 -0.0574,-0.0409 -0.34772,-0.26764 -0.0784,-0.0299 -0.0586,-0.0518 -0.11652,-0.1026 -0.17164,-0.15845 a 0.78291,0.78291 0 0 1 -0.088,-0.10815 q -0.053,-0.0909 -0.10278,-0.18342 l -0.005,-0.0333 c -0.004,-0.0276 -0.008,-0.0391 -0.0113,-0.0557 0.002,-0.0172 0.004,-0.0356 0.007,-0.0535 a 0.64632,0.64632 0 0 0 0.0381,-0.16767 l 0.0116,-0.0146 c 0.0431,-0.0601 0.0808,-0.13025 0.12194,-0.19275 -0.2174,0.3302 0.085,-0.0364 0.10761,-0.0829 0.004,-0.008 -0.003,-0.004 -0.001,-0.009 0.009,-0.005 0.006,-0.002 0.0167,-0.008 0.0674,-0.0397 0.13123,-0.0839 0.19965,-0.12183 0.0815,-0.0452 0.40246,-0.13629 0.0696,-0.0411 0.0756,-0.0216 0.14819,-0.0489 0.22461,-0.0688 0.0139,-0.004 0.12591,-0.0193 0.18628,-0.0301 0.053,-10e-4 0.10443,-0.003 0.10986,-0.003 0.0249,3.1e-4 0.0498,0.003 0.0747,0.004 -0.0552,0.007 0.18957,0.0603 0.26227,0.0715 0.0105,0.008 0.0159,0.0136 0.0301,0.024 0.0615,0.0449 0.13623,0.0848 0.20111,0.12677 -0.2901,-0.1875 0.004,0.0149 0.0592,0.0703 0.0331,0.0331 0.0637,0.0685 0.0949,0.10333 a 0.8089,0.8089 0 0 1 0.0773,0.106 c 0.0476,0.0872 0.0981,0.17536 0.14813,0.26111 l 0.0139,0.022 a 0.08283,0.08283 0 0 0 -4.3e-4,0.008 2.37222,2.37222 0 0 0 0.11487,0.40777 0.33315,0.33315 0 0 1 0.006,0.0339 c 0.005,0.0762 0.011,0.1521 0.0112,0.2287 l -6.7e-4,0.0155 a 1.643,1.643 0 0 0 -1.49823,-0.0107 z"
     fill="#e6e6e6"
     id="path49" />
  <path
     d="m 150.17947,138.90461 -0.005,7.3e-4 c 0.006,6e-4 0.004,-4e-4 0.005,-7.3e-4 z"
     fill="#e6e6e6"
     id="path51" />
  <polygon
     points="150.179,138.903 150.177,138.902 "
     fill="#e6e6e6"
     id="polygon53" />
  <path
     d="m 150.18026,138.90314 c 0.004,0.001 1.9e-4,0.001 -7.9e-4,0.001 z"
     fill="#e6e6e6"
     id="path55" />
  <path
     d="m 150.17916,138.90278 0.001,3.6e-4 z"
     fill="#e6e6e6"
     id="path57" />
  <polygon
     points="212.179,152.903 212.177,152.902 "
     fill="#e6e6e6"
     id="polygon59" />
  <path
     d="m 217.37252,108.14551 a 5.96169,5.96169 0 0 0 -7.22314,-2.67334 5.24684,5.24684 0 0 0 -2.98908,2.78314 c -0.0574,0.13605 -0.091,0.27912 -0.13787,0.41852 -0.065,0.1051 -0.14313,0.2 -0.20136,0.30994 a 5.95769,5.95769 0 0 0 9.29083,7.11792 6.41612,6.41612 0 0 0 1.26062,-7.95618 z m -3.75726,2.54761 c 0.0123,0.0757 0.008,0.14532 0,0 z m -0.3819,-0.86841 c -0.0147,-0.0169 -0.0129,-0.0151 0,0 z m -1.68335,0.67688 c -0.0225,-0.0347 -0.0247,-0.0405 0,0 z m 0.399,0.33826 c 0.095,0.0324 0.0574,0.0256 0,0 z m 0.17816,0.0849 0.0395,-0.0181 a 0.05015,0.05015 0 0 1 -0.028,-0.006 l 0.001,-1.9e-4 0.0309,0.004 0.006,-0.003 -0.0179,-0.004 c 0.0155,-5.4e-4 0.0173,0.002 0.0183,0.004 0.17846,-0.0817 0.0576,-0.0424 -0.0458,-0.0104 l -0.007,-0.002 a 0.68136,0.68136 0 0 0 -0.20568,-0.066 c -0.007,-0.004 -0.0145,-0.006 -0.02,-0.0104 -0.0574,-0.0409 -0.34772,-0.26764 -0.0784,-0.0299 -0.0586,-0.0518 -0.11652,-0.1026 -0.17164,-0.15845 a 0.78291,0.78291 0 0 1 -0.088,-0.10815 q -0.053,-0.0909 -0.10278,-0.18342 l -0.005,-0.0333 c -0.004,-0.0276 -0.008,-0.0391 -0.0113,-0.0557 0.002,-0.0172 0.004,-0.0356 0.007,-0.0535 a 0.64632,0.64632 0 0 0 0.0381,-0.16767 l 0.0116,-0.0146 c 0.0431,-0.0601 0.0808,-0.13025 0.12194,-0.19275 -0.2174,0.3302 0.085,-0.0364 0.10761,-0.0829 0.004,-0.008 -0.003,-0.004 -0.001,-0.009 0.009,-0.005 0.006,-0.002 0.0167,-0.008 0.0674,-0.0397 0.13123,-0.0839 0.19965,-0.12183 0.0815,-0.0452 0.40246,-0.13629 0.0696,-0.0411 0.0756,-0.0216 0.14819,-0.0489 0.22461,-0.0688 0.0139,-0.004 0.12591,-0.0193 0.18628,-0.0301 0.053,-0.001 0.10443,-0.003 0.10986,-0.003 0.0249,3.1e-4 0.0498,0.003 0.0747,0.004 -0.0552,0.007 0.18957,0.0603 0.26227,0.0715 0.0105,0.008 0.0159,0.0136 0.0301,0.024 0.0615,0.0449 0.13623,0.0848 0.20111,0.12677 -0.2901,-0.1875 0.004,0.0149 0.0592,0.0703 0.0331,0.0331 0.0637,0.0685 0.0949,0.10333 a 0.8089,0.8089 0 0 1 0.0773,0.106 c 0.0476,0.0872 0.0981,0.17536 0.14813,0.26111 l 0.0139,0.022 a 0.08283,0.08283 0 0 0 -4.3e-4,0.008 2.37222,2.37222 0 0 0 0.11487,0.40777 0.33315,0.33315 0 0 1 0.006,0.0339 c 0.005,0.0762 0.011,0.1521 0.0112,0.2287 l -6.7e-4,0.0155 a 1.643,1.643 0 0 0 -1.49823,-0.0107 z"
     fill="#e6e6e6"
     id="path61" />
  <polygon
     points="212.171,152.905 212.167,152.907 212.175,152.905 "
     fill="#e6e6e6"
     id="polygon63" />
  <path
     d="m 212.17916,152.90278 0.001,3.6e-4 z"
     fill="#e6e6e6"
     id="path65" />
  <path
     d="m 212.17947,152.90461 -0.005,7.3e-4 c 0.006,6e-4 0.004,-4e-4 0.005,-7.3e-4 z"
     fill="#e6e6e6"
     id="path67" />
  <path
     d="m 212.18026,152.90314 c 0.004,0.001 1.9e-4,0.001 -7.9e-4,0.001 z"
     fill="#e6e6e6"
     id="path69" />
  <path
     d="m 280.37252,185.14551 a 5.96169,5.96169 0 0 0 -7.22314,-2.67334 5.24684,5.24684 0 0 0 -2.98908,2.78314 c -0.0574,0.13605 -0.091,0.27912 -0.13787,0.41852 -0.065,0.1051 -0.14313,0.2 -0.20136,0.30994 a 5.95769,5.95769 0 0 0 9.29083,7.11792 6.41612,6.41612 0 0 0 1.26062,-7.95618 z m -3.75726,2.54761 c 0.0123,0.0757 0.008,0.14532 0,0 z m -0.3819,-0.86841 c -0.0147,-0.0169 -0.0129,-0.0151 0,0 z m -1.68335,0.67688 c -0.0225,-0.0347 -0.0247,-0.0405 0,0 z m 0.399,0.33826 c 0.095,0.0324 0.0574,0.0256 0,0 z m 0.17816,0.0849 0.0395,-0.0181 a 0.05015,0.05015 0 0 1 -0.028,-0.006 l 0.001,-1.9e-4 0.0309,0.004 0.006,-0.003 -0.0179,-0.004 c 0.0155,-5.4e-4 0.0173,0.002 0.0183,0.004 0.17846,-0.0817 0.0576,-0.0424 -0.0458,-0.0104 l -0.007,-0.002 a 0.68136,0.68136 0 0 0 -0.20568,-0.066 c -0.007,-0.004 -0.0145,-0.006 -0.02,-0.0104 -0.0574,-0.0409 -0.34772,-0.26764 -0.0784,-0.0299 -0.0586,-0.0518 -0.11652,-0.1026 -0.17164,-0.15845 a 0.78291,0.78291 0 0 1 -0.088,-0.10815 q -0.053,-0.0909 -0.10278,-0.18342 l -0.005,-0.0333 c -0.004,-0.0276 -0.008,-0.0391 -0.0113,-0.0557 0.002,-0.0172 0.004,-0.0356 0.007,-0.0535 a 0.64632,0.64632 0 0 0 0.0381,-0.16767 l 0.0116,-0.0146 c 0.0431,-0.0601 0.0808,-0.13025 0.12194,-0.19275 -0.2174,0.3302 0.085,-0.0364 0.10761,-0.0829 0.004,-0.008 -0.003,-0.004 -10e-4,-0.009 0.009,-0.005 0.006,-0.002 0.0167,-0.008 0.0674,-0.0397 0.13123,-0.0839 0.19965,-0.12183 0.0815,-0.0452 0.40246,-0.13629 0.0696,-0.0411 0.0756,-0.0216 0.14819,-0.0489 0.22461,-0.0688 0.0139,-0.004 0.12591,-0.0193 0.18628,-0.0301 0.053,-10e-4 0.10443,-0.003 0.10986,-0.003 0.0249,3.1e-4 0.0498,0.003 0.0747,0.004 -0.0552,0.007 0.18957,0.0603 0.26227,0.0715 0.0105,0.008 0.0159,0.0136 0.0301,0.024 0.0615,0.0449 0.13623,0.0848 0.20111,0.12677 -0.2901,-0.1875 0.004,0.0149 0.0592,0.0703 0.0331,0.0331 0.0637,0.0685 0.0949,0.10333 a 0.8089,0.8089 0 0 1 0.0773,0.106 c 0.0476,0.0872 0.0981,0.17536 0.14813,0.26111 l 0.0139,0.022 a 0.08283,0.08283 0 0 0 -4.3e-4,0.008 2.37222,2.37222 0 0 0 0.11487,0.40777 0.33315,0.33315 0 0 1 0.006,0.0339 c 0.005,0.0762 0.011,0.1521 0.0112,0.2287 l -6.7e-4,0.0155 a 1.643,1.643 0 0 0 -1.49823,-0.0107 z"
     fill="#e6e6e6"
     id="path71" />
  <polygon
     points="275.171,121.905 275.167,121.907 275.175,121.905 "
     fill="#e6e6e6"
     id="polygon73" />
  <path
     d="m 275.17916,121.90278 10e-4,3.6e-4 z"
     fill="#e6e6e6"
     id="path75" />
  <path
     d="m 275.17947,121.90461 -0.005,7.3e-4 c 0.006,6e-4 0.004,-4e-4 0.005,-7.3e-4 z"
     fill="#e6e6e6"
     id="path77" />
  <path
     d="m 275.18026,121.90314 c 0.004,0.001 1.9e-4,0.001 -7.9e-4,0.001 z"
     fill="#e6e6e6"
     id="path79" />
  <polygon
     points="275.179,121.903 275.177,121.902 "
     fill="#e6e6e6"
     id="polygon81" />
  <path
     d="m 334.17916,141.90278 10e-4,3.6e-4 z"
     fill="#e6e6e6"
     id="path83" />
  <path
     d="m 339.37252,139.14551 a 5.96169,5.96169 0 0 0 -7.22314,-2.67334 5.24684,5.24684 0 0 0 -2.98908,2.78314 c -0.0574,0.13605 -0.091,0.27912 -0.13787,0.41852 -0.065,0.1051 -0.14313,0.2 -0.20136,0.30994 a 5.95769,5.95769 0 0 0 9.29083,7.11792 6.41612,6.41612 0 0 0 1.26062,-7.95618 z m -3.75726,2.54761 c 0.0123,0.0757 0.008,0.14532 0,0 z m -0.3819,-0.86841 c -0.0147,-0.0169 -0.0129,-0.0151 0,0 z m -1.68335,0.67688 c -0.0225,-0.0347 -0.0247,-0.0405 0,0 z m 0.399,0.33826 c 0.095,0.0324 0.0574,0.0256 0,0 z m 0.17816,0.0849 0.0395,-0.0181 a 0.05015,0.05015 0 0 1 -0.028,-0.006 l 0.001,-1.9e-4 0.0309,0.004 0.006,-0.003 -0.0179,-0.004 c 0.0155,-5.4e-4 0.0173,0.002 0.0183,0.004 0.17846,-0.0817 0.0576,-0.0424 -0.0458,-0.0104 l -0.007,-0.002 a 0.68136,0.68136 0 0 0 -0.20568,-0.066 c -0.007,-0.004 -0.0145,-0.006 -0.02,-0.0104 -0.0574,-0.0409 -0.34772,-0.26764 -0.0784,-0.0299 -0.0586,-0.0518 -0.11652,-0.1026 -0.17164,-0.15845 a 0.78291,0.78291 0 0 1 -0.088,-0.10815 q -0.053,-0.0909 -0.10278,-0.18342 l -0.005,-0.0333 c -0.004,-0.0276 -0.008,-0.0391 -0.0113,-0.0557 0.002,-0.0172 0.004,-0.0356 0.007,-0.0535 a 0.64632,0.64632 0 0 0 0.0381,-0.16767 l 0.0116,-0.0146 c 0.0431,-0.0601 0.0808,-0.13025 0.12194,-0.19275 -0.2174,0.3302 0.085,-0.0364 0.10761,-0.0829 0.004,-0.008 -0.003,-0.004 -10e-4,-0.009 0.009,-0.005 0.006,-0.002 0.0167,-0.008 0.0674,-0.0397 0.13123,-0.0839 0.19965,-0.12183 0.0815,-0.0452 0.40246,-0.13629 0.0696,-0.0411 0.0756,-0.0216 0.14819,-0.0489 0.22461,-0.0688 0.0139,-0.004 0.12591,-0.0193 0.18628,-0.0301 0.053,-10e-4 0.10443,-0.003 0.10986,-0.003 0.0249,3.1e-4 0.0498,0.003 0.0747,0.004 -0.0552,0.007 0.18957,0.0603 0.26227,0.0715 0.0105,0.008 0.0159,0.0136 0.0301,0.024 0.0615,0.0449 0.13623,0.0848 0.20111,0.12677 -0.2901,-0.1875 0.004,0.0149 0.0592,0.0703 0.0331,0.0331 0.0637,0.0685 0.0949,0.10333 a 0.8089,0.8089 0 0 1 0.0773,0.106 c 0.0476,0.0872 0.0981,0.17536 0.14813,0.26111 l 0.0139,0.022 a 0.08283,0.08283 0 0 0 -4.3e-4,0.008 2.37222,2.37222 0 0 0 0.11487,0.40777 0.33315,0.33315 0 0 1 0.006,0.0339 c 0.005,0.0762 0.011,0.1521 0.0112,0.2287 l -6.7e-4,0.0155 a 1.643,1.643 0 0 0 -1.49823,-0.0107 z"
     fill="#e6e6e6"
     id="path85" />
  <polygon
     points="334.171,141.905 334.167,141.907 334.175,141.905 "
     fill="#e6e6e6"
     id="polygon87" />
  <polygon
     points="334.179,141.903 334.177,141.902 "
     fill="#e6e6e6"
     id="polygon89" />
  <path
     d="m 334.18026,141.90314 c 0.004,0.001 1.9e-4,0.001 -7.9e-4,0.001 z"
     fill="#e6e6e6"
     id="path91" />
  <path
     d="m 334.17947,141.90461 -0.005,7.3e-4 c 0.006,6e-4 0.004,-4e-4 0.005,-7.3e-4 z"
     fill="#e6e6e6"
     id="path93" />
  <path
     d="m 318.00328,187.73322 -46.49682,2.58432 a 1.02517,1.02517 0 0 1 -0.2217,-2.03544 l 47.52456,-7.73334 z"
     fill="#3f3d56"
     id="path95" />
  <path
     d="m 377.09391,291.24942 17.52161,-29.4782 12.95055,6.11652 c 0,0 -22.31534,27.8716 -23.02629,28.67345 a 6.857,6.857 0 1 1 -7.44587,-5.31177 z"
     fill="#ffb6b6"
     id="path97" />
  <path
     d="m 384.38239,222.77384 28.38759,14.81061 a 15.7158,15.7158 0 0 1 2.66026,23.07858 l -19.5701,22.4493 -8.5256,-11.55273 6.57123,-13.73984 -12.72381,-3.35516 z"
     fill="#6c63ff"
     id="path99" />
  <path
     d="m 303.48555,188.21483 -3.1974,34.14311 -14.32229,0.0239 c 0,0 8.21712,-34.74593 8.51582,-35.7751 a 6.857,6.857 0 1 1 9.00387,1.60813 z"
     fill="#ffb6b6"
     id="path101" />
  <path
     d="m 331.9948,258.03668 -32.96452,-6.04537 c -13.88142,-1.66929 -19.57814,-10.80283 -17.07345,-19.71158 l 8.06061,-28.6703 12.65411,6.78416 -0.0487,15.2303 17.71307,-2.42166 z"
     fill="#6c63ff"
     id="path103" />
  <polygon
     points="305.125,459.03 318.503,459.03 318.501,493.992 309.437,493.992 "
     fill="#ffb6b6"
     id="polygon105" />
  <path
     d="m 318.82053,503.44809 -27.87342,-10e-4 v -0.3525 a 10.84971,10.84971 0 0 1 10.84911,-10.84894 h 6.8e-4 l 5.09143,-3.86263 9.4995,3.86322 2.43317,8e-5 z"
     fill="#2f2e41"
     id="path107" />
  <polygon
     points="396.012,459.03 382.634,459.03 382.636,493.992 391.7,493.992 "
     fill="#ffb6b6"
     id="polygon109" />
  <path
     d="m 382.31668,503.44809 27.87342,-10e-4 v -0.3525 a 10.8497,10.8497 0 0 0 -10.84911,-10.84894 h -6.7e-4 l -5.09144,-3.86263 -9.4995,3.86322 -2.43317,8e-5 z"
     fill="#2f2e41"
     id="path111" />
  <path
     d="m 304.72628,433.33794 c 0.13386,-1.99494 1.19824,-13.02767 1.19824,-13.02767 l 2.54945,-23.39757 4.49339,-62.02167 4.00519,-16.30232 19.82578,7.72341 16.087,-7.71206 19.12086,6.11232 14.88876,5.58329 c 0,0 0.0255,2.39011 0.1402,5.27738 0.153,3.77959 0.42064,8.41318 1.058,9.6178 1.06439,2.12881 0.79671,13.5567 0.79671,13.5567 0,0 1.058,23.25095 2.3901,25.80039 1.3321,2.54944 1.59975,7.85869 1.19825,8.92307 -0.4015,1.06438 1.3321,28.9872 1.3321,28.9872 0,0 4.44946,49.413 1.65781,56.8638 -2.79165,7.4508 -13.34066,2.57019 -13.34066,2.57019 0,0 0.50988,-1.98857 -2.54945,-2.92551 -3.05933,-0.93694 -12.3776,-71.00212 -12.3776,-71.00212 0,0 -1.7336,-14.36616 -3.327,-18.48349 -1.5934,-4.11733 -3.05932,-15.68547 -3.05932,-15.68547 0,0 -9.84087,-19.14637 -9.96835,-23.40394 0,0 -1.28749,-3.98351 -2.50483,0.40154 -1.21734,4.38505 -4.80569,14.88876 -4.80569,14.88876 l -3.49911,12.90016 -4.11738,19.27381 -2.66417,16.22725 c 0,0 -3.98989,21.53644 -4.62725,22.467 -0.63736,0.93056 0,20.60592 0,20.60592 0,0 -3.08481,16.75623 -7.44439,19.68174 -4.35958,2.92551 -15.90977,0.0465 -15.90977,0.0465 0,0 -0.68073,-41.55147 -0.54687,-43.54637 z"
     fill="#2f2e41"
     id="path113" />
  <path
     d="m 319.54709,266.13234 -2.53328,32.81806 -3.8061,3.939 a 3.67047,3.67047 0 0 0 0.19226,5.286 v 0 l -2.09691,3.59581 -0.74242,11.33014 a 6.15824,6.15824 0 0 0 5.69891,7.58983 l 65.63208,3.08345 a 6.15823,6.15823 0 0 0 6.39361,-6.96235 l -5.58086,-42.01386 v -3.14148 l -2.49845,-6.06691 1.28412,-20.32414 2.98692,-32.25875 -17.36244,-4.48476 -9.41385,-6.47691 -16.35468,0.26039 -9.92373,8.15016 -13.23159,2.07219 -10.00658,1.98907 -1.27473,2.77028 2.54945,-0.55406 9.24061,36.04127 z"
     fill="#6c63ff"
     id="path115" />
  <circle
     cx="349.15768"
     cy="188.3819"
     r="19.265949"
     fill="#ffb6b6"
     id="circle117" />
  <path
     d="m 344.51268,206.405 13.9197,-0.71 c 1.78357,-0.091 3.73022,-0.2485 5.02752,-1.47587 a 7.61645,7.61645 0 0 0 1.57785,-2.62117 c 1.28687,-2.98916 2.57378,-5.97839 3.82778,-8.9815 1.73455,-4.15394 3.43808,-8.53993 2.99533,-13.01965 a 8.28531,8.28531 0 0 0 -2.40838,-5.43091 4.59943,4.59943 0 0 0 -5.5901,-0.56644 9.45237,9.45237 0 0 0 -4.692,-6.81251 14.4862,14.4862 0 0 0 -8.26222,-1.75172 19.94078,19.94078 0 0 0 -11.35626,4.47585 24.64986,24.64986 0 0 1 -2.89711,2.29575 4.5479,4.5479 0 0 1 -3.53584,0.65422 2.55893,2.55893 0 0 1 -1.87846,-2.78916 4.92343,4.92343 0 0 0 -1.25935,6.49978 4.54324,4.54324 0 0 1 -4.44025,-0.5253 5.42846,5.42846 0 1 0 5.69282,9.18831 c 0.84481,1.18329 0.5302,2.79132 0.42013,4.24107 -0.11007,1.44975 0.27874,3.25148 1.67635,3.65218 1.88945,0.5417 3.4199,-2.0024 5.38528,-1.9753 a 2.95555,2.95555 0 0 1 2.34381,1.51036 8.7243,8.7243 0 0 1 0.93824,2.73911 l 2.51535,11.324"
     fill="#2f2e41"
     id="path119" />
  <path
     d="m 817.25715,379.63685 c 0,-2.98336 -1.0019,-5.40458 -2.232,-5.41012 H 479.68043 c -1.23566,0.006 -2.232,2.42676 -2.23753,5.41012 v 122.80946 a 1.11465,1.11465 0 0 1 -1.00673,1.10966 q -1.3501,0.12958 -2.7002,0.24121 c -0.0223,0 -0.0445,0.006 -0.0668,0.006 -0.48977,0.0445 -0.97958,0.0779 -1.46939,0.11686 h -0.006 q -0.37793,-0.69876 -0.7471,-1.4097 a 1.1195,1.1195 0 0 1 -0.12676,-0.51712 V 372.61816 c 0,-0.82379 0.0334,-1.65312 0.089,-2.4713 a 31.661,31.661 0 0 1 0.41745,-3.35073 c 0.94065,-5.17078 3.06686,-8.67181 5.48251,-8.68292 h 340.08141 a 2.6062,2.6062 0 0 1 1.02412,0.217 3.99262,3.99262 0 0 1 1.26349,0.885 7.83147,7.83147 0 0 1 1.24121,1.69761 22.34258,22.34258 0 0 1 2.34329,8.86661 c 0,0.0334 0.006,0.0668 0.006,0.10018 0.0779,0.90172 0.11686,1.82009 0.11132,2.73849 l 0.0779,11.92789 0.0501,7.11331 0.15029,22.3196 0.0557,7.926 0.2449,81.37464 v 0 a 1.1132,1.1132 0 0 1 -1.11319,1.1132 h -4.475 a 1.1132,1.1132 0 0 1 -1.1132,-1.1132 z"
     fill="#e6e6e6"
     id="path121" />
  <path
     d="m 726.1332,302.29994 h -36.134 a 1.928,1.928 0 0 0 -1.925,1.93 v 57.08105 h 39.989 v -57.08105 a 1.929,1.929 0 0 0 -1.93,-1.93 z m -17.94542,32.43276 a 4.28685,4.28685 0 0 1 -4.26683,-4.26681 v -6.5838 a 4.266815,4.266815 0 0 1 8.53363,0 v 6.5838 a 4.28679,4.28679 0 0 1 -4.2668,4.26681 z"
     fill="#cccccc"
     id="path123" />
  <path
     d="m 687.95016,359.48519 v 5.50719 a 1.07883,1.07883 0 0 0 1.07664,1.07662 h 38.08381 a 1.08205,1.08205 0 0 0 1.07662,-1.07662 v -5.50719 z"
     fill="#3f3d56"
     id="path125" />
  <path
     d="M 785.96783,213.21852 H 631.50915 a 5.01407,5.01407 0 0 0 -5.00608,5.00605 v 104.22937 a 5.01087,5.01087 0 0 0 5.00608,5.006 h 154.45868 a 5.01086,5.01086 0 0 0 5.00607,-5.006 V 218.22457 a 5.01406,5.01406 0 0 0 -5.00607,-5.00605 z"
     fill="#e6e6e6"
     id="path127" />
  <path
     d="M 784.67854,216.83432 H 632.79968 a 2.68306,2.68306 0 0 0 -2.67724,2.6828 v 101.64594 a 2.68185,2.68185 0 0 0 2.67724,2.67723 h 151.87886 a 2.68184,2.68184 0 0 0 2.67723,-2.67723 V 219.51712 a 2.68306,2.68306 0 0 0 -2.67723,-2.6828 z"
     fill="#ffffff"
     id="path129" />
  <path
     d="m 755.0951,367.98534 h -90.35967 a 1.66223,1.66223 0 0 1 -1.62659,-2.00462 l 1.4021,-6.65907 a 1.6694,1.6694 0 0 1 1.62631,-1.31974 h 87.556 a 1.66942,1.66942 0 0 1 1.62631,1.31974 l 1.40209,6.65907 a 1.66222,1.66222 0 0 1 -1.62658,2.00462 z"
     fill="#cccccc"
     id="path131" />
  <rect
     x="666.77893"
     y="359.20099"
     width="2.78299"
     height="1.66979"
     rx="0.48819"
     fill="#e6e6e6"
     id="rect133" />
  <rect
     x="672.34491"
     y="359.20099"
     width="2.78299"
     height="1.66979"
     rx="0.48819"
     fill="#e6e6e6"
     id="rect135" />
  <rect
     x="677.91089"
     y="359.20099"
     width="2.78299"
     height="1.66979"
     rx="0.48819"
     fill="#e6e6e6"
     id="rect137" />
  <rect
     x="683.47687"
     y="359.20099"
     width="2.78299"
     height="1.66979"
     rx="0.48819"
     fill="#e6e6e6"
     id="rect139" />
  <rect
     x="689.04285"
     y="359.20099"
     width="2.78299"
     height="1.66979"
     rx="0.48819"
     fill="#e6e6e6"
     id="rect141" />
  <rect
     x="694.60883"
     y="359.20099"
     width="2.78299"
     height="1.66979"
     rx="0.48819"
     fill="#e6e6e6"
     id="rect143" />
  <rect
     x="700.1748"
     y="359.20099"
     width="2.78299"
     height="1.66979"
     rx="0.48819"
     fill="#e6e6e6"
     id="rect145" />
  <rect
     x="705.74078"
     y="359.20099"
     width="2.78299"
     height="1.66979"
     rx="0.48819"
     fill="#e6e6e6"
     id="rect147" />
  <rect
     x="711.30676"
     y="359.20099"
     width="2.78299"
     height="1.66979"
     rx="0.48819"
     fill="#e6e6e6"
     id="rect149" />
  <rect
     x="716.87274"
     y="359.20099"
     width="2.78299"
     height="1.66979"
     rx="0.48819"
     fill="#e6e6e6"
     id="rect151" />
  <rect
     x="722.43872"
     y="359.20099"
     width="2.78299"
     height="1.66979"
     rx="0.48819"
     fill="#e6e6e6"
     id="rect153" />
  <rect
     x="728.0047"
     y="359.20099"
     width="2.78299"
     height="1.66979"
     rx="0.48819"
     fill="#e6e6e6"
     id="rect155" />
  <rect
     x="733.57068"
     y="359.20099"
     width="2.78299"
     height="1.66979"
     rx="0.48819"
     fill="#e6e6e6"
     id="rect157" />
  <rect
     x="739.13666"
     y="359.20099"
     width="2.78299"
     height="1.66979"
     rx="0.48819"
     fill="#e6e6e6"
     id="rect159" />
  <rect
     x="744.70264"
     y="359.20099"
     width="2.78299"
     height="1.66979"
     rx="0.48819"
     fill="#e6e6e6"
     id="rect161" />
  <rect
     x="750.26862"
     y="359.20099"
     width="2.78299"
     height="1.66979"
     rx="0.48819"
     fill="#e6e6e6"
     id="rect163" />
  <rect
     x="666.71313"
     y="361.98398"
     width="2.78299"
     height="1.66979"
     rx="0.48819"
     fill="#e6e6e6"
     id="rect165" />
  <rect
     x="672.27911"
     y="361.98398"
     width="2.78299"
     height="1.66979"
     rx="0.48819"
     fill="#e6e6e6"
     id="rect167" />
  <rect
     x="677.84509"
     y="361.98398"
     width="2.78299"
     height="1.66979"
     rx="0.48819"
     fill="#e6e6e6"
     id="rect169" />
  <rect
     x="683.41107"
     y="361.98398"
     width="2.78299"
     height="1.66979"
     rx="0.48819"
     fill="#e6e6e6"
     id="rect171" />
  <rect
     x="688.97705"
     y="361.98398"
     width="2.78299"
     height="1.66979"
     rx="0.48819"
     fill="#e6e6e6"
     id="rect173" />
  <rect
     x="694.54303"
     y="361.98398"
     width="2.78299"
     height="1.66979"
     rx="0.48819"
     fill="#e6e6e6"
     id="rect175" />
  <rect
     x="700.10901"
     y="361.98398"
     width="2.78299"
     height="1.66979"
     rx="0.48819"
     fill="#e6e6e6"
     id="rect177" />
  <rect
     x="705.67499"
     y="361.98398"
     width="2.78299"
     height="1.66979"
     rx="0.48819"
     fill="#e6e6e6"
     id="rect179" />
  <rect
     x="711.24097"
     y="361.98398"
     width="2.78299"
     height="1.66979"
     rx="0.48819"
     fill="#e6e6e6"
     id="rect181" />
  <rect
     x="716.80695"
     y="361.98398"
     width="2.78299"
     height="1.66979"
     rx="0.48819"
     fill="#e6e6e6"
     id="rect183" />
  <rect
     x="722.37292"
     y="361.98398"
     width="2.78299"
     height="1.66979"
     rx="0.48819"
     fill="#e6e6e6"
     id="rect185" />
  <rect
     x="727.9389"
     y="361.98398"
     width="2.78299"
     height="1.66979"
     rx="0.48819"
     fill="#e6e6e6"
     id="rect187" />
  <rect
     x="733.50494"
     y="361.98398"
     width="2.78299"
     height="1.66979"
     rx="0.48819"
     fill="#e6e6e6"
     id="rect189" />
  <rect
     x="739.07092"
     y="361.98398"
     width="2.78299"
     height="1.66979"
     rx="0.48819"
     fill="#e6e6e6"
     id="rect191" />
  <rect
     x="744.6369"
     y="361.98398"
     width="2.78299"
     height="1.66979"
     rx="0.48819"
     fill="#e6e6e6"
     id="rect193" />
  <rect
     x="750.20288"
     y="361.98398"
     width="2.78299"
     height="1.66979"
     rx="0.48819"
     fill="#e6e6e6"
     id="rect195" />
  <rect
     x="693.42987"
     y="365.32355"
     width="22.26392"
     height="1.66979"
     rx="0.48819"
     fill="#e6e6e6"
     id="rect197" />
  <path
     d="M 777.04384,230.83886 H 634.93136 a 0.56528,0.56528 0 0 1 0,-1.13028 h 142.11248 a 0.56528,0.56528 0 0 1 0,1.13028 z"
     fill="#cacaca"
     id="path199" />
  <ellipse
     cx="644.60516"
     cy="223.43727"
     rx="3.312"
     ry="3.3858099"
     fill="#cccccc"
     id="ellipse201" />
  <ellipse
     cx="656.04657"
     cy="223.43727"
     rx="3.312"
     ry="3.3858099"
     fill="#cccccc"
     id="ellipse203" />
  <ellipse
     cx="667.48804"
     cy="223.43727"
     rx="3.312"
     ry="3.3858099"
     fill="#cccccc"
     id="ellipse205" />
  <path
     d="m 770.15513,220.89068 h -8.12745 a 0.61551,0.61551 0 0 0 0,1.23078 h 8.12741 a 0.61551,0.61551 0 0 0 0,-1.23078 z"
     fill="#cccccc"
     id="path207" />
  <path
     d="m 770.15513,223.20066 h -8.12745 a 0.61552,0.61552 0 0 0 0,1.23079 h 8.12741 a 0.61552,0.61552 0 0 0 0,-1.23079 z"
     fill="#cccccc"
     id="path209" />
  <path
     d="m 770.15513,225.50762 h -8.12745 a 0.61551,0.61551 0 0 0 0,1.23078 h 8.12741 a 0.61551,0.61551 0 0 0 0,-1.23078 z"
     fill="#cccccc"
     id="path211" />
  <rect
     x="697.289"
     y="261.62866"
     width="22.58782"
     height="4.8301401"
     rx="2.4150701"
     fill="#6c63ff"
     id="rect213" />
  <rect
     x="685.81744"
     y="271.28894"
     width="45.530979"
     height="4.8301401"
     rx="2.4150701"
     fill="#e6e6e6"
     id="rect215" />
  <rect
     x="685.81744"
     y="280.94922"
     width="45.530979"
     height="4.8301401"
     rx="2.4150701"
     fill="#e6e6e6"
     id="rect217" />
  <polygon
     points="527.785,393.314 539.867,399.092 524.726,431.447 516.54,427.531 "
     fill="#ffb6b6"
     id="polygon219"
     transform="translate(-70)" />
  <path
     d="m 509.6083,425.93023 c -0.59529,0.37288 -1.19058,0.73959 -1.79189,1.10646 -1.19664,0.73357 -2.40523,1.45512 -3.61387,2.16462 -0.60733,0.35482 -1.22067,0.70965 -1.828,1.05845 v 0.0179 l -0.0361,0.006 -0.012,0.006 -0.926,0.22858 -1.32887,-3.5117 -0.61334,-1.61748 -0.86589,-2.291 -1.58746,-4.19111 -8.35817,-22.068 12.99427,-3.205 0.48706,1.99036 h 0.006 l 0.2405,0.98608 4.53991,18.41214 0.926,3.7642 0.0301,0.11421 0.55921,2.24889 0.48108,1.94824 0.53513,2.1768 z"
     fill="#ffb6b6"
     id="path221" />
  <path
     d="m 587.12427,348.43237 c -0.82379,1.32288 -1.66564,2.63975 -2.51347,3.94458 q -2.36319,3.6439 -4.85256,7.17962 c 0,0.006 -0.006,0.006 -0.012,0.012 a 16.97642,16.97642 0 0 1 -3.18693,2.32706 c -0.0481,0.0361 -0.10221,0.0601 -0.15032,0.0902 a 11.74913,11.74913 0 0 1 -2.68185,1.07636 c -0.33673,0.0842 -0.67948,0.16835 -1.01622,0.25254 -1.21461,0.28862 -2.41723,0.53518 -3.61387,0.75164 -2.12862,0.37883 -4.23319,0.64942 -6.32574,0.81777 -0.16838,0.0181 -0.33673,0.0301 -0.50511,0.0421 -8.60473,0.63137 -16.981,-0.38484 -25.724,-2.05044 -4.31743,-0.81781 -8.725,-1.79794 -13.28894,-2.81416 -1.49124,-0.33673 -2.98849,-0.66744 -4.5038,-0.99815 -0.11425,-0.024 -0.23452,-0.0541 -0.35479,-0.0782 -2.16469,-0.475 -4.36547,-0.94406 -6.62037,-1.40707 -2.8382,-0.58326 -5.76657,-1.14849 -8.80919,-1.68366 l 0.21646,4.28733 a 32.26822,32.26822 0 0 0 2.03243,9.639 c 1.29885,3.80027 2.32706,6.80681 0.15635,13.06642 l -1.04628,3.03064 a 10.35021,10.35021 0 0 1 -1.06432,9.15795 l -0.21045,0.31868 8.725,22.074 0.56523,1.43112 h -4.46776 l -5.49593,0.006 h -9.31426 l -13.43927,-26.9627 -0.64341,-1.28681 v -0.0661 l 1.389,-51.81475 c 0.0181,-0.457 0.0541,-0.92 0.11425,-1.377 a 15.7532,15.7532 0 0 1 5.99506,-10.60705 15.17083,15.17083 0 0 1 11.29858,-3.09074 l 4.6,0.59529 9.39846,1.21466 6.62037,0.85986 0.13231,0.018 19.52447,2.52551 1.40106,-5.71243 0.25856,-0.0962 8.21991,-3.01256 28.42985,-10.42069 0.0722,-0.024 1.87006,-0.6855 0.22248,0.36077 c 0.0662,0.10827 0.1323,0.2165 0.19242,0.32473 a 55.72845,55.72845 0 0 1 4.49179,10.42667 163.68257,163.68257 0 0 1 4.72026,18.02124 q 0.0812,0.39687 0.14431,0.72158 l 0.0181,0.0661 c 0.018,0.10221 0.0301,0.16835 0.0361,0.18641 a 16.8184,16.8184 0 0 1 -1.00412,9.36239 z"
     fill="#2f2e41"
     id="path223" />
  <path
     d="m 588.32421,329.33711 c -0.0902,-0.38485 -0.20447,-0.77567 -0.3247,-1.1545 a 82.26988,82.26988 0 0 0 -3.33123,-8.43036 c -1.41908,-3.12681 -3.1208,-6.4761 -5.1472,-10.102 q -1.47021,-2.63376 -3.16289,-5.47791 -0.84785,-1.42511 -1.76183,-2.90433 a 1.53038,1.53038 0 0 0 -0.0782,-0.13227 l -0.17436,-0.28861 -28.12923,3.76419 -10.47479,1.40106 -0.62535,5.21936 -0.15032,1.29282 c -0.006,0 -0.006,0 0,0.006 l -0.42093,3.52366 v 0.006 l -0.55921,4.65412 -0.0481,-0.006 -15.54382,-2.01436 -16.01886,-2.07453 -8.60473,-1.1124 a 15.16164,15.16164 0 0 0 -11.29857,3.09073 15.76117,15.76117 0 0 0 -5.995,10.60709 c -0.0541,0.42093 -0.0902,0.85385 -0.10827,1.28079 l -8.11766,19.23586 a 124.10762,124.10762 0 0 0 -9.176,36.10255 l -5.953,19.03143 0.84783,0.0782 12.61544,1.17256 3.33124,0.3127 7.336,-10.70931 c 0.83583,-1.22067 1.62956,-2.47739 2.36916,-3.7642 a 57.16729,57.16729 0 0 0 3.24106,-6.5182 l 15.86854,-37.76217 q 1.84,0.31578 3.64393,0.60131 8.34321,1.353 16.01887,2.20679 c 16.6382,1.85806 31.04556,2.00237 43.87148,0.427 q 5.40276,-0.65842 10.44473,-1.73177 1.84906,-0.3879 3.64995,-0.83583 c 0.28259,-0.0661 0.55921,-0.13227 0.83582,-0.20446 a 15.345,15.345 0 0 0 10.73335,-10.02983 15.65694,15.65694 0 0 0 0.39684,-8.76115 z"
     fill="#2f2e41"
     id="path225" />
  <path
     d="m 457.34119,425.85917 -8.85726,-4.24524 -1.389,-0.66744 -2.21883,5.44785 -15.48972,3.40945 a 3.67535,3.67535 0 0 0 -0.60131,6.99322 l 15.13493,6.17545 4.80445,-4.32341 -1.17858,5.80265 5.70039,2.32706 6.24757,-19.88528 z"
     fill="#2f2e41"
     id="path227" />
  <polygon
     points="581.774,417.469 582.34,418.9 581.774,418.9 "
     fill="#2f2e41"
     id="polygon229"
     transform="translate(-70)" />
  <path
     d="m 508.68954,419.20552 -9.2808,3.21559 -1.45663,0.50307 2.25657,5.43233 -8.60767,13.32155 a 3.67535,3.67535 0 0 0 4.4933,5.39231 l 15.09969,-6.26111 0.37189,-6.45262 3.24539,4.95249 5.68793,-2.35736 -9.55231,-18.52592 z"
     fill="#2f2e41"
     id="path231" />
  <path
     d="m 452.35994,220.24906 a 6.59162,6.59162 0 0 0 9.85736,2.23448 l 19.51561,12.9554 0.0372,-12.17246 -18.53806,-10.43654 a 6.62733,6.62733 0 0 0 -10.87213,7.41908 z"
     fill="#ffb6b6"
     id="path233" />
  <path
     d="m 466.93956,225.87522 9.10526,-10.3586 37.07416,22.00944 49.14578,-4.5007 a 16.619,16.619 0 0 1 18.06343,18.081 v 0 a 16.63668,16.63668 0 0 1 -18.07975,15.0161 l -55.35008,-5.12316 z"
     fill="#cccccc"
     id="path235" />
  <path
     d="m 581.00599,226.03507 -0.0853,-0.10723 v 0 a 35.90712,35.90712 0 0 0 -34.75218,18.00664 l -4.17086,7.347 c -13.49095,16.49312 -3.68758,27.86723 -3.10071,29.55866 l -4.68285,21.59147 1.04956,7.226 0.52418,2.1465 53.45405,27.93083 c 3.04333,-14.62225 0.10065,-27.08252 -10.9867,-36.60114 l 10.72747,-33.37813 a 47.01985,47.01985 0 0 0 -7.97669,-43.7206 z"
     fill="#cccccc"
     id="path237" />
  <path
     d="m 538.50351,388.19186 h -17.1461 a 3.917,3.917 0 0 1 -3.87533,-3.3671 87.17978,87.17978 0 0 1 0,-23.47951 3.91726,3.91726 0 0 1 3.80956,-3.3665 c 5.39475,-2.41816 11.20436,-2.41786 17.27088,-3e-4 a 3.87165,3.87165 0 0 1 2.94606,1.42077 3.96093,3.96093 0 0 1 0.81741,3.30162 52.71012,52.71012 0 0 0 0,20.76834 3.96093,3.96093 0 0 1 -0.81741,3.30162 3.871,3.871 0 0 1 -3.00507,1.42106 z"
     fill="#6c63ff"
     id="path239" />
  <path
     d="m 536.7078,366.93026 h -14.4314 a 0.902,0.902 0 1 1 0,-1.80393 h 14.4314 a 0.902,0.902 0 1 1 0,1.80393 z"
     fill="#ffffff"
     id="path241" />
  <path
     d="m 536.7078,374.14594 h -14.4314 a 0.902,0.902 0 1 1 0,-1.80393 h 14.4314 a 0.902,0.902 0 1 1 0,1.80393 z"
     fill="#ffffff"
     id="path243" />
  <path
     d="m 536.7078,381.36166 h -14.4314 a 0.902,0.902 0 1 1 0,-1.80392 h 14.4314 a 0.902,0.902 0 1 1 0,1.80392 z"
     fill="#ffffff"
     id="path245" />
  <path
     d="m 455.50351,226.19186 h -17.1461 a 3.917,3.917 0 0 1 -3.87533,-3.3671 87.17978,87.17978 0 0 1 0,-23.47951 3.91726,3.91726 0 0 1 3.80956,-3.3665 c 5.39475,-2.41816 11.20436,-2.41786 17.27088,-3e-4 a 3.87165,3.87165 0 0 1 2.94606,1.42077 3.96093,3.96093 0 0 1 0.81741,3.30162 52.71012,52.71012 0 0 0 0,20.76834 3.96093,3.96093 0 0 1 -0.81741,3.30162 3.871,3.871 0 0 1 -3.00507,1.42106 z"
     fill="#6c63ff"
     id="path247" />
  <path
     d="m 453.7078,204.93026 h -14.4314 a 0.902,0.902 0 1 1 0,-1.80393 h 14.4314 a 0.902,0.902 0 1 1 0,1.80393 z"
     fill="#ffffff"
     id="path249" />
  <path
     d="m 453.7078,212.14594 h -14.4314 a 0.902,0.902 0 1 1 0,-1.80393 h 14.4314 a 0.902,0.902 0 1 1 0,1.80393 z"
     fill="#ffffff"
     id="path251" />
  <path
     d="m 453.7078,219.36166 h -14.4314 a 0.902,0.902 0 1 1 0,-1.80392 h 14.4314 a 0.902,0.902 0 1 1 0,1.80392 z"
     fill="#ffffff"
     id="path253" />
  <path
     d="m 224.50351,270.19186 h -17.1461 a 3.917,3.917 0 0 1 -3.87533,-3.3671 87.17978,87.17978 0 0 1 0,-23.47951 3.91726,3.91726 0 0 1 3.80956,-3.3665 c 5.39475,-2.41816 11.20436,-2.41786 17.27088,-3e-4 a 3.87165,3.87165 0 0 1 2.94606,1.42077 3.96093,3.96093 0 0 1 0.81741,3.30162 52.71012,52.71012 0 0 0 0,20.76834 3.96093,3.96093 0 0 1 -0.81741,3.30162 3.871,3.871 0 0 1 -3.00507,1.42106 z"
     fill="#6c63ff"
     id="path255" />
  <path
     d="m 222.7078,248.93026 h -14.4314 a 0.902,0.902 0 1 1 0,-1.80393 h 14.4314 a 0.902,0.902 0 1 1 0,1.80393 z"
     fill="#ffffff"
     id="path257" />
  <path
     d="m 222.7078,256.14594 h -14.4314 a 0.902,0.902 0 1 1 0,-1.80393 h 14.4314 a 0.902,0.902 0 1 1 0,1.80393 z"
     fill="#ffffff"
     id="path259" />
  <path
     d="m 222.7078,263.36166 h -14.4314 a 0.902,0.902 0 1 1 0,-1.80392 h 14.4314 a 0.902,0.902 0 1 1 0,1.80392 z"
     fill="#ffffff"
     id="path261" />
  <path
     d="m 543.52729,366.27388 a 6.5916,6.5916 0 0 0 1.64575,-9.97255 l 11.77477,-20.24983 -12.15324,0.685 -9.31829,19.12456 a 6.62733,6.62733 0 0 0 8.051,10.41283 z"
     fill="#ffb6b6"
     id="path263" />
  <path
     d="m 548.27859,351.38617 -10.88053,-8.4747 19.77122,-38.31459 -7.40838,-48.7922 a 16.619,16.619 0 0 1 16.97747,-19.10428 v 0 a 16.63667,16.63667 0 0 1 16.06224,17.15706 l -1.83044,55.55653 z"
     fill="#cccccc"
     id="path265" />
  <path
     d="m 92.38534,340.91787 a 6.64617,6.64617 0 0 0 -0.92425,-10.14919 l 10.582,-52.56023 -11.68584,3.752 -8.4704,50.83891 a 6.68225,6.68225 0 0 0 10.49845,8.11854 z"
     fill="#9e616a"
     id="path267" />
  <path
     d="m 108.01026,229.71421 -7.25052,-5.47306 c 0,0 -6.39609,-0.45294 -7.5289,11.08163 -1.13281,11.53457 -3.45883,34.01358 -3.45883,34.01358 l -11.09474,51.38647 15.35812,3.371 11.88326,-55.4551 7.12879,-16.46808 z"
     fill="#cccccc"
     id="path269" />
  <polygon
     points="140.319,285.023 96.057,285.023 96.057,313.623 136.914,312.942 "
     fill="#9e616a"
     id="polygon271" />
  <polygon
     points="146.747,449.046 132.826,449.047 132.828,485.427 142.26,485.427 "
     fill="#9e616a"
     id="polygon273" />
  <polygon
     points="87.402,449.823 75.135,452.637 73.738,486.301 83.17,486.234 "
     fill="#9e616a"
     id="polygon275" />
  <polygon
     points="103.238,260.98 101.101,266.536 101.528,272.093 143.355,286.58 141.28,262.262 136.578,256.705 "
     fill="#ffb6b6"
     id="polygon277" />
  <circle
     cx="121.18221"
     cy="196.03648"
     r="14.93893"
     fill="#9e616a"
     id="circle279" />
  <path
     d="m 130.48862,480.77437 14.91014,-0.88993 v 6.38815 l 14.17548,9.7901 a 3.99028,3.99028 0 0 1 -2.26741,7.27391 h -17.75108 l -3.05966,-6.31886 -1.19465,6.31886 h -6.69287 z"
     fill="#2f2e41"
     id="path281" />
  <path
     d="m 70.51148,481.67 14.90355,-0.99428 0.0447,6.388 14.24367,9.69063 a 3.99028,3.99028 0 0 1 -2.21644,7.28961 l -17.75064,0.12425 -3.10383,-6.29729 -1.15038,6.32707 -6.69271,0.0468 z"
     fill="#2f2e41"
     id="path283" />
  <path
     d="m 70.80304,458.40668 6.8681,-54.89788 8.17141,-57.8808 C 79.85846,334.51467 93.333,300.00431 93.333,300.00431 l 1.902,0.0913 43.05,8.12158 -0.009,-0.0414 c 8.80514,24.01585 11.72238,35.88019 11.23985,61.45474 l -1.73467,91.935 h 0.54417 a 3.404755,3.404755 0 0 1 0,6.80951 h -17.02374 a 3.40476,3.40476 0 1 1 0,-6.80951 h 0.43893 l -15.62574,-109.46724 -13.24821,45.963 -14.98091,59.92362 c 5.4476,-1.3619 4.60175,1.79359 4.60175,3.58067 a 3.40476,3.40476 0 0 1 -3.40476,3.40475 H 72.05868 a 3.40121,3.40121 0 0 1 -1.25559,-6.56358 z"
     fill="#2f2e41"
     id="path285" />
  <path
     d="m 89.98096,301.79194 1.36194,-13.619 a 2.71478,2.71478 0 0 1 2.4549,-2.03932 c 0.56745,-6.48761 2.95489,-34.47566 3.09753,-35.69629 l 0.006,-0.0516 1.08564,-23.19163 a 3.42964,3.42964 0 0 1 3.20218,-3.262 l 5.73413,-0.37481 a 0.30343,0.30343 0 0 0 0.29322,-0.30323 4.82207,4.82207 0 0 1 4.82205,-4.8221 h 16.97689 a 4.51469,4.51469 0 0 1 4.47767,3.95212 0.29971,0.29971 0 0 0 0.30506,0.26974 h 0.002 a 8.06559,8.06559 0 0 1 8.11384,6.68989 c 2.32095,13.50393 6.97231,44.15273 4.6726,61.1917 -0.80056,5.93155 0.92521,1.2336 1.228,6.19651 a 3.65315,3.65315 0 0 1 -0.9095,2.64862 2.63369,2.63369 0 0 1 1.58533,3.34765 l 0.29838,-0.0739 a 2.72377,2.72377 0 0 1 -3.307,1.97535 l -44.41614,6.0183 c -1.4587,-0.3677 -11.45242,-7.39736 -11.08472,-8.856 z"
     fill="#cccccc"
     id="path287" />
  <path
     d="m 208.66557,246.41994 a 6.64617,6.64617 0 0 1 -9.35992,4.03141 l -17.17084,15.67037 -2.27985,-12.05978 16.666,-12.99325 a 6.68225,6.68225 0 0 1 12.14465,5.35125 z"
     fill="#9e616a"
     id="path289" />
  <path
     d="m 148.90127,234.442 c 0,0 -5.98735,-13.53065 -13.54943,-10.84111 -7.56208,2.68954 -3.65762,15.81786 -3.65762,15.81786 l 28.411,42.81149 c 0,0 40.97912,-26.28757 35.99605,-26.47325 -4.98307,-0.18568 -6.47365,-9.24886 -6.47365,-9.24886 l -21.65819,10.82181 -0.7328,-3.85243 -1.17455,1.17455 -3.03091,-2.38559 z"
     fill="#cccccc"
     id="path291" />
  <circle
     cx="568.68286"
     cy="198.72118"
     r="20.856819"
     fill="#ffb6b6"
     id="circle293" />
  <path
     d="m 635.61948,229.41172 a 18.08782,18.08782 0 0 1 -9.94255,7.00011 20.797,20.797 0 0 1 -4.94982,0.8407 18.715,18.715 0 0 0 -1.47122,-5.49886 15.4508,15.4508 0 0 1 -0.7635,5.486 18.38753,18.38753 0 0 1 -7.236,-1.93873 15.945,15.945 0 0 1 -8.53138,-11.4438 c -0.88359,-5.70476 1.70286,-11.30656 2.63792,-17.00271 0.93935,-5.69617 -0.82354,-12.91072 -6.3996,-14.4077 -4.2464,-1.14094 -3.77029,-0.64766 -7.30036,1.97308 3.672,5.42946 -9.89092,25.32605 -15.44141,23.591 -3.13813,-0.98094 -5.14714,-3.86035 -5.79482,-3.86035 -4.36219,7.5148 3.85176,20.17676 -4.42654,22.80609 l 0.682,-0.682 c 4.997,-6.14652 -5.44739,-19.15592 -0.45037,-25.30246 1.394,-1.72 2.87809,-3.75741 2.46633,-5.93205 -0.39034,-2.06744 -3.67162,-3.1612 -4.63244,-1.46266 1.72859,-3.959 -0.82353,-9.2434 -5.04846,-10.26 -3.75312,-0.905 -3.68451,0.21017 -7.45048,0.69486 a 18.69,18.69 0 0 0 -1.36828,-4.7225 15.3235,15.3235 0 0 1 -0.5619,4.81258 6.04294,6.04294 0 0 1 -3.65447,-1.3211 c -3.07111,-2.47493 -2.44919,-7.67353 0.29167,-10.50874 2.74515,-2.83521 6.82426,-3.85606 10.71461,-4.51662 1.13094,-7.87547 22.85981,-8.697 25.74,-0.82783 1.22675,-5.87632 8.58285,-8.926 14.30047,-7.103 5.71762,1.823 9.6852,7.16311 11.77408,12.79064 2.08887,5.62324 2.67221,11.67543 3.959,17.53458 1.28679,5.85915 3.46146,11.82554 7.93946,15.81886 4.478,3.989 11.77408,5.31013 16.49229,1.60419 a 13.20769,13.20769 0 0 1 -1.57423,11.83842 z"
     fill="#2f2e41"
     id="path295" />
  <path
     d="m 831.2951,277.00742 -2.92,14.65 c -0.22,1.12 -0.44995,2.26 -0.69995,3.39 a 14.28772,14.28772 0 0 0 -7.34,0.41 68.511,68.511 0 0 1 5.04,8.43 c -1.84,5.67 -4.54,10.91 -9.06,14.7 a 22.71964,22.71964 0 0 1 -21.95,3.86 l 0.13,-0.58 c -4.86,-9.43 -2.22,-21.32 3.82,-30.03 a 58.3846,58.3846 0 0 1 10.85,-11.47 c 4.07995,-3.4 8.49,-6.45 12.86,-9.46 a 5.99007,5.99007 0 0 1 9.26995,6.1 z"
     fill="#e4e4e4"
     id="path297" />
  <path
     id="a7585634-9c2c-4d81-a429-c019b32aabf2-774"
     data-name="a4b268fa-75d0-4ac1-9d87-14bdca948464-2189"
     d="m 795.40497,357.69726 c -1.229,-8.953 -2.493,-18.02 -1.631,-27.069 0.766,-8.036 3.217,-15.885 8.209,-22.321 a 37.13173,37.13173 0 0 1 9.527,-8.633 c 0.953,-0.6 1.829,0.909 0.881,1.507 a 35.29987,35.29987 0 0 0 -13.963,16.847 c -3.04,7.732 -3.528,16.161 -3,24.374 0.317,4.967 0.988,9.9 1.665,14.83 a 0.9,0.9 0 0 1 -0.61,1.074 0.878,0.878 0 0 1 -1.074,-0.61 z"
     fill="#f2f2f2" />
  <path
     d="M 822.91363,504.98854 1.0484213,505.29588 a 1.0480179,1.19069 0 0 1 0,-2.38137 L 822.91363,502.60717 a 1.0480179,1.19069 0 0 1 0,2.38137 z"
     fill="#cacaca"
     id="path300"
     style="stroke-width:0.938177" />
  <path
     d="m 103.59984,186.88942 c -2.29115,1.09956 -4.85587,-0.55463 -6.83394,-2.1938 l 0.70759,0.6111 c -3.496,3.40136 -5.13049,8.295 -5.92915,13.1122 -0.79946,4.81219 -0.8886,9.73349 -1.89518,14.51148 -1.00736,4.77294 -3.097,9.5685 -7.00017,12.49186 -5.229,3.91551 -12.44089,3.66418 -18.8579,2.4639 -0.0855,-0.0174 -0.16516,-0.0305 -0.25065,-0.0479 a 39.17631,39.17631 0 0 0 2.06351,-15.53107 35.62051,35.62051 0 0 1 -8.55133,14.01635 81.77118,81.77118 0 0 1 -12.41776,-4.52484 c -2.59486,-1.19436 -5.38892,-2.82751 -6.10908,-5.59277 -0.722,-2.74434 0.95459,-5.62289 3.19644,-7.35579 2.24185,-1.7329 4.99335,-2.637 7.54733,-3.87152 2.54979,-1.22872 5.073,-2.98061 6.09393,-5.62536 2.35472,-6.084 -4.35321,-13.0653 -1.739,-19.04589 1.28916,-2.94091 4.44678,-4.54059 7.41464,-5.7739 a 108.82521,108.82521 0 0 1 13.92569,-4.69721 c 4.16318,-1.09817 8.51015,-1.95158 12.7512,-1.2317 4.24105,0.71988 8.396,3.29944 9.92241,7.32712 2.54684,0.86075 5.25072,1.83091 6.88523,3.97468 1.63374,2.13875 1.50203,5.82066 -0.92381,6.98308 z"
     fill="#2f2e41"
     id="path302" />
  <path
     d="m 123.98621,179.83941 c -6.5545,-5.17444 -11.85405,-4.29114 -15.9423,-1.07639 -0.68728,-0.76456 -3.61211,1.339 -4.60242,1.03664 l -3.58185,6.72422 c -1.84318,3.25252 -2.59937,6.57264 -2.30142,8.44132 -3.3904,9.50778 4.64952,15.92831 14.15749,19.31852 a 18.14268,18.14268 0 0 0 11.76508,0.1704 l 0.11686,-1.62011 0.72,1.32781 c 0,0 8.6921,17.89737 10.74606,18.70108 -1.24628,-3.233 -4.5334,-18.59855 -5.45092,-21.80147 -1.2581,-4.35783 -0.39868,-11.28126 0.34075,-15.52611 a 24.0569,24.0569 0 0 0 0.0714,-7.91713 l -0.0183,-0.11474 2.03365,4.10533 4.563,-2.86926 c -1.74391,-5.0794 -1.77872,-11.15576 -12.61704,-8.90011 z"
     fill="#2f2e41"
     id="path304" />
</svg>
