<?xml version="1.0" encoding="UTF-8" standalone="no"?>
<svg
   data-name="Layer 1"
   width="803"
   height="259.00001"
   viewBox="0 0 803 259.00001"
   version="1.1"
   id="svg54"
   sodipodi:docname="working_office_pinecone_academy.svg"
   xml:space="preserve"
   inkscape:version="1.2.1 (9c6d41e410, 2022-07-14)"
   xmlns:inkscape="http://www.inkscape.org/namespaces/inkscape"
   xmlns:sodipodi="http://sodipodi.sourceforge.net/DTD/sodipodi-0.dtd"
   xmlns="http://www.w3.org/2000/svg"
   xmlns:svg="http://www.w3.org/2000/svg"><defs
     id="defs58" /><sodipodi:namedview
     id="namedview56"
     pagecolor="#ffffff"
     bordercolor="#cccccc"
     borderopacity="1"
     inkscape:showpageshadow="0"
     inkscape:pageopacity="1"
     inkscape:pagecheckerboard="0"
     inkscape:deskcolor="#d1d1d1"
     showgrid="false"
     showguides="true"
     inkscape:zoom="1.5678706"
     inkscape:cx="449.97337"
     inkscape:cy="127.88046"
     inkscape:window-width="1920"
     inkscape:window-height="1001"
     inkscape:window-x="-9"
     inkscape:window-y="-9"
     inkscape:window-maximized="1"
     inkscape:current-layer="svg54" /><path
     d="M979.75635,552.5h-29.5127a4.57,4.57,0,0,0-3.49853,1.61737,6.999,6.999,0,1,0,1.80566,13.1731l2.44776,7.95416A4.6111,4.6111,0,0,0,955.40625,578.5h19.188a4.611,4.611,0,0,0,4.40722-3.25537l5.1626-16.77692A4.61179,4.61179,0,0,0,979.75635,552.5ZM945.5,566a5,5,0,0,1,0-10c.09131,0,.17627.0221.2666.02692a4.56344,4.56344,0,0,0,.06983,2.44079l2.11181,6.86475A4.9367,4.9367,0,0,1,945.5,566Z"
     transform="translate(-198.5 -320.5)"
     fill="#f0f0f0"
     id="path2" /><path
     d="M260.75635,531.5h-29.5127a4.57,4.57,0,0,0-3.49853,1.61737,6.999,6.999,0,1,0,1.80566,13.1731l3.44776,28.95416A4.6111,4.6111,0,0,0,237.40625,578.5h19.188a4.611,4.611,0,0,0,4.40722-3.25537l4.1626-37.77692A4.61179,4.61179,0,0,0,260.75635,531.5ZM226.5,545a5,5,0,0,1,0-10c.09131,0,.17627.0221.2666.02692a4.56344,4.56344,0,0,0,.06983,2.44079l2.11181,6.86475A4.9367,4.9367,0,0,1,226.5,545Z"
     transform="translate(-198.5 -320.5)"
     fill="#f0f0f0"
     id="path4" /><path
     d="M609.41391,507.5a8,8,0,1,0-8,8c.09961,0,.19629-.01129.29492-.01489a71.18124,71.18124,0,0,1,3.13916,19.83484,63.036,63.036,0,0,1-.57324,10.03064c-.34814,2.35785-.99805,5.063-3.33887,6.16443-1.7456.82141-.22461,3.40851,1.51416,2.59045,2.64014-1.24225,3.92432-4.02637,4.5-6.7475a53.31646,53.31646,0,0,0,.90332-10.64251,74.07087,74.07087,0,0,0-3.21484-21.89753A7.99765,7.99765,0,0,0,609.41391,507.5Z"
     transform="translate(-198.5 -320.5)"
     fill="#e6e6e6"
     id="path6" /><path
     id="a0da58c6-f23b-4b1c-a031-0451c6211c58-1070"
     data-name="Path 482"
     d="M606.96985,555.70717S596.24281,529.303,628.42311,509.5Z"
     transform="translate(-198.5 -320.5)"
     fill="#e6e6e6" /><path
     id="fe698360-631b-4312-af6d-5610d78e8b38-1071"
     data-name="Path 483"
     d="M606.39454,555.22685s-3.272-18.81968-28.59873-18.65816Z"
     transform="translate(-198.5 -320.5)"
     fill="#e6e6e6" /><path
     d="M624.34007,578.33987H580.36a4.49834,4.49834,0,0,1-4.0451-2.53048l-9.5755-19.683a4.49837,4.49837,0,0,1,4.0451-6.46629h63.131a4.49836,4.49836,0,0,1,4.0451,6.46624l-9.5755,19.683A4.49834,4.49834,0,0,1,624.34007,578.33987Z"
     transform="translate(-198.5 -320.5)"
     fill="#f0f0f0"
     id="path10" /><path
     d="M1000.5,579.5h-801a1,1,0,0,1,0-2h801a1,1,0,0,1,0,2Z"
     transform="translate(-198.5 -320.5)"
     fill="#3f3d56"
     id="path12" /><polygon
     points="167.075 200.927 147.64 127.442 145.39 118.959 147.5 117 183.722 99.055 235.482 100.344 265.869 115.944 266.033 127.442 267.533 231.033 273.595 256.46 162.419 256.46 171.051 215.964 167.075 200.927"
     fill="#6c63ff"
     id="polygon14" /><path
     d="M493.42866,576.96H464.45528l-7.99934-57.75954,2.09366-71.25814.28875-9.69427,5.53072-1.80449a35.113,35.113,0,0,1,10.09263,11.49876c3.55454,6.18684,6.50719,15.05312,5.77294,26.97375,0,0,.65644,14.0766.03127,23.45062C479.83642,504.77229,487.31206,545.26023,493.42866,576.96Z"
     transform="translate(-198.5 -320.5)"
     fill="#6c63ff"
     id="path16" /><path
     d="M365.67647,520.69249l-.10146.7343-7.687,55.53323H324.57134c2.67153-31.46545,5.81184-70.805,5.39-77.10908-.62479-9.36619.03127-23.45066.03127-23.45066-.7968-12.91268,2.7421-22.22419,6.67121-28.45794a37.84172,37.84172,0,0,1,7.2258-8.48347,20.154,20.154,0,0,1,1.96855-1.52328l5.53073,1.79667,1.44524,8.21008Z"
     transform="translate(-198.5 -320.5)"
     fill="#6c63ff"
     id="path18" /><path
     d="M369.51681,371.26632a35.8795,35.8795,0,1,0,35.87952-35.87948h0a35.79022,35.79022,0,0,0-35.87948,35.70072Q369.51662,371.17695,369.51681,371.26632Z"
     transform="translate(-198.5 -320.5)"
     fill="#ffb7b7"
     id="path20" /><path
     d="M520,571.23819v0a7.72182,7.72182,0,0,1-7.72182,7.72181H305.72187A7.72186,7.72186,0,0,1,298,571.23816v0a7.72182,7.72182,0,0,1,7.72182-7.72182h2.29261a5.29559,5.29559,0,0,1-.20292-1.41391V456.64865a6.70631,6.70631,0,0,1,6.70631-6.70631H503.48237a6.70612,6.70612,0,0,1,6.70612,6.70612V562.10241a4.99155,4.99155,0,0,1-.20292,1.41391h2.29256A7.72187,7.72187,0,0,1,520,571.23819Z"
     transform="translate(-198.5 -320.5)"
     fill="#3f3d56"
     id="path22" /><path
     d="M744.5,402.18115V381a48,48,0,0,1,96,0v21.18115A10.8312,10.8312,0,0,1,829.68115,413H764.80029L759.5,401.73682V413h-4.18115A10.8312,10.8312,0,0,1,744.5,402.18115Z"
     transform="translate(-198.5 -320.5)"
     fill="#2f2e41"
     id="path28" /><path
     d="M827.5067,469.97642l2.06756,22.40256.9393,10.17884,1.49955,16.20736.18934,2.0903,1.21923,13.16283.03033.1439a11.98889,11.98889,0,0,0,11.58737,8.41419l55.68071-.96185,15.71511-.27264c.30286.45444.59834.8634.89381,1.22691a15.4873,15.4873,0,0,0,11.27711,5.62714,15.331,15.331,0,0,0,11.75378-4.688c.30324-.31049.59834-.63615.87126-.977a15.47863,15.47863,0,0,0,.99957-18.14623,15.30163,15.30163,0,0,0-10.61812-6.87674,15.46642,15.46642,0,0,0-12.148,3.3248,13.69022,13.69022,0,0,0-1.49178,1.43136l-17.25274-2.51442-43.44951-6.32389-1.8553-25.06842c-.00776-.11362-.01516-.22724-.02292-.34839l-1.49955-20.229a13.24519,13.24519,0,0,0-13.39756-12.26157,12.8459,12.8459,0,0,0-3.2868.462,13.06505,13.06505,0,0,0-3.40809,1.46927A13.215,13.215,0,0,0,827.5067,469.97642Z"
     transform="translate(-198.5 -320.5)"
     fill="#9e616a"
     id="path30" /><circle
     cx="595.94217"
     cy="62.1901"
     r="31.47171"
     fill="#9e616a"
     id="circle32" /><path
     d="M836.40447,435.143l5.72213-1.90738s11.44426,4.76844,11.44426,13.35164,1.90737,42.916,1.90737,42.916l-25.74958,2.86106Z"
     transform="translate(-198.5 -320.5)"
     fill="#6c63ff"
     id="path34" /><path
     d="M714.66829,577.96H737.359l7.76288-65.04918,2.80975-23.49315.38608-3.24145,2.07533-17.38887a11.99668,11.99668,0,0,0-18.26748-10.83016,11.73993,11.73993,0,0,0-1.34053.96185,11.9372,11.9372,0,0,0-4.3474,8.76255l-2.04463,19.1232Z"
     transform="translate(-198.5 -320.5)"
     fill="#9e616a"
     id="path36" /><path
     d="M748.70077,489.50318l-25.74959-2.86107s1.90738-34.33277,1.90738-42.916,11.44426-13.35163,11.44426-13.35163l5.72213,1.90737Z"
     transform="translate(-198.5 -320.5)"
     fill="#6c63ff"
     id="path38" /><path
     d="M740.35029,577.96H847.993a210.61029,210.61029,0,0,0-13.89716-37.86018c-.94669-1.93125-1.50731-2.96124-1.50731-2.96124s-45.77446-.90125-74.38715,10.54236a14.027,14.027,0,0,0-4.80187,3.42326C748.44637,556.22394,744.11451,565.83477,740.35029,577.96Z"
     transform="translate(-198.5 -320.5)"
     fill="#2f2e41"
     id="path40" /><path
     d="M762.97047,424.65238s-.90822-.48755,53.40381,1.49089l22.73118,6.26024,3.02119.83206s-2.86106,57.2213-10.49057,67.71187-5.72213,16.2127-3.81475,17.16639,6.67582-.95369,3.81475,3.81475-6.67581,1.90738-2.86106,4.76844,5.72213,13.35164,5.72213,13.35164l-83.92457,11.44426s-2.86106-37.19385-10.49057-56.26761-9.53688-26.70327-9.53688-26.70327l5.72213-38.14753Z"
     transform="translate(-198.5 -320.5)"
     fill="#6c63ff"
     id="path42" /><path
     d="M760.5,365a31,31,0,0,1,62,0v14h-62Z"
     transform="translate(-198.5 -320.5)"
     fill="#2f2e41"
     id="path44" /><path
     d="M897,570.09139v2.76436a6.10561,6.10561,0,0,1-6.10432,6.10427H687.87181a6.10561,6.10561,0,0,1-6.10432-6.10427v-2.76436a6.10559,6.10559,0,0,1,6.10432-6.10428h3.60483a5.13409,5.13409,0,0,1-.19673-1.37081V458.99507a5.12294,5.12294,0,0,1,5.11954-5.11973h185.9686a5.12294,5.12294,0,0,1,5.11953,5.11973V562.6163a4.83952,4.83952,0,0,1-.19673,1.37081h3.60483A6.10559,6.10559,0,0,1,897,570.09139Z"
     fill="#3f3d56"
     id="path46"
     transform="translate(-198.5 -320.5)" /><path
     d="M446.03857,341.46228a24.292,24.292,0,0,1-6.87841-8.35864,11.30044,11.30044,0,0,0-2.376-3.32117L430,335l4.146-7.22125c-10.61866-6.41858-31.354-3.00958-31.354-3.00958-21.57031-11.48609-29.49072,2.8518-32.252,11.94458a20.04064,20.04064,0,0,1-5.59815,8.56292c-5.3208,5.07349,3.05811,14.942,3.05811,14.942v.69745L370,374.5s2-9,7.27783-15.3244c3.32755-3.98739,8.74342-6.35817,11.25879-6.30908C421,353.5,427.146,354.78546,427.146,354.78546s5.49609,2.95264,7.92334,4.19294C442.91309,362.98651,441,377.5,441,377.5l5.86133-25.759C448.21436,345.49689,447.46289,342.632,446.03857,341.46228Z"
     transform="translate(-198.5 -320.5)"
     fill="#2f2e41"
     id="path52" /><path
     style="fill:#00cd44;stroke-width:0.0517902;fill-opacity:1"
     d="m 202.80412,198.38082 c -0.82754,-0.15115 -1.61176,-0.53587 -2.25933,-1.1084 -0.33306,-0.29446 -0.76448,-0.87969 -1.05523,-1.43145 -0.13509,-0.25636 -0.2627,-0.48941 -0.28359,-0.5179 -0.0209,-0.0285 -0.21933,-0.40137 -0.44098,-0.82864 -0.22166,-0.42727 -0.41966,-0.80016 -0.44002,-0.82865 -0.0204,-0.0285 -0.21941,-0.40137 -0.44236,-0.82864 -0.22295,-0.42727 -0.47054,-0.88755 -0.5502,-1.02286 -0.0797,-0.1353 -0.1322,-0.246 -0.11676,-0.246 0.0154,0 -0.0164,-0.0641 -0.0708,-0.14242 -0.0544,-0.0783 -0.13324,-0.21234 -0.17518,-0.2978 -0.0419,-0.0855 -0.14704,-0.28355 -0.23355,-0.44021 -0.0865,-0.15667 -0.28095,-0.5179 -0.43207,-0.80275 -0.15112,-0.28485 -0.4349,-0.8159 -0.63063,-1.18012 -0.78255,-1.45622 -1.00421,-2.13873 -1.10674,-3.40787 -0.0727,-0.89998 0.1693,-2.16993 0.59216,-3.10723 0.10201,-0.22612 0.67169,-1.31193 0.94872,-1.80828 0.0716,-0.12818 0.25906,-0.47777 0.4167,-0.77686 0.15764,-0.29908 0.39408,-0.73638 0.52543,-0.97177 0.13135,-0.23539 0.23881,-0.44095 0.23881,-0.45681 0,-0.0159 0.13725,-0.27772 0.30499,-0.58193 0.36654,-0.66475 0.50226,-0.91744 0.96463,-1.79606 0.70732,-1.34412 1.2302,-2.28369 1.39783,-2.51183 0.44713,-0.60854 1.20781,-1.20377 1.91414,-1.49781 0.76096,-0.31679 0.84857,-0.32526 3.64011,-0.35165 l 2.55067,-0.0241 v 1.1091 1.10911 l -0.33909,0.0625 c -0.47539,0.0876 -0.85715,0.27009 -1.16254,0.55575 -0.30227,0.28274 -0.43794,0.49814 -1.07348,1.70434 -0.25514,0.48423 -0.51007,0.962 -0.56651,1.06169 -0.0564,0.0997 -0.2175,0.40267 -0.3579,0.67328 -0.1404,0.2706 -0.27474,0.50626 -0.29854,0.52369 -0.0238,0.0174 -0.0369,0.0407 -0.0291,0.0518 0.008,0.0111 -0.0691,0.17159 -0.17085,0.35674 -0.10178,0.18515 -0.27774,0.51143 -0.39102,0.72506 -0.11329,0.21364 -0.28766,0.53992 -0.3875,0.72507 -0.0998,0.18515 -0.30437,0.56969 -0.45451,0.85454 -0.15014,0.28484 -0.43535,0.81719 -0.63381,1.183 -0.4935,0.90963 -0.64575,1.25945 -0.76446,1.7565 -0.30387,1.27222 -0.13106,2.27368 0.63668,3.68964 0.16989,0.31333 0.33207,0.59883 0.36041,0.63443 0.0283,0.0356 0.0354,0.0647 0.0158,0.0647 -0.0197,0 0.009,0.0641 0.0635,0.14242 0.0546,0.0783 0.23416,0.39879 0.39898,0.71212 0.16483,0.31333 0.3632,0.68622 0.44083,0.82864 0.0776,0.14242 0.38029,0.71341 0.67257,1.26886 0.29229,0.55545 0.57206,1.07983 0.62174,1.16528 0.0497,0.0855 0.26081,0.48165 0.46921,0.88043 0.20839,0.39879 0.43879,0.82994 0.51198,0.95812 0.0732,0.12818 0.22626,0.41524 0.34015,0.6379 0.22438,0.43868 0.69742,0.96432 1.00956,1.12182 0.2456,0.12393 0.7312,0.2601 0.92751,0.2601 h 0.16035 v 1.11349 1.11349 l -2.44709,-0.005 c -1.74487,-0.003 -2.55112,-0.0237 -2.80962,-0.0709 z m 9.81424,-1.01061 c 0,-0.82994 0.0156,-1.09648 0.0647,-1.10979 0.0356,-0.01 0.20413,-0.0438 0.37449,-0.0758 0.78149,-0.14711 1.23818,-0.54515 1.76094,-1.53478 0.19561,-0.3703 0.41248,-0.77815 0.48193,-0.90633 0.0694,-0.12818 0.22531,-0.4195 0.34636,-0.64738 0.12104,-0.22787 0.31935,-0.60076 0.44069,-0.82864 0.12133,-0.22788 0.2469,-0.43144 0.27902,-0.45237 0.0321,-0.0209 0.0408,-0.0384 0.0193,-0.0388 -0.0447,-9.1e-4 0.4231,-0.89051 0.49367,-0.93881 0.0255,-0.0174 0.0455,-0.0524 0.0445,-0.0777 -0.001,-0.0253 0.2213,-0.4655 0.49403,-0.97822 0.27272,-0.51272 0.61296,-1.15363 0.75608,-1.42423 0.14311,-0.2706 0.35003,-0.65153 0.45982,-0.8465 0.54029,-0.95957 0.74154,-1.65509 0.73662,-2.54576 -0.006,-1.11552 -0.089,-1.35768 -1.133,-3.31457 -0.0912,-0.17091 -0.27705,-0.52049 -0.41303,-0.77686 -0.57995,-1.09336 -0.72237,-1.36047 -0.85605,-1.60549 -0.0777,-0.14242 -0.24091,-0.4454 -0.36267,-0.67327 -0.12177,-0.22788 -0.38473,-0.7173 -0.58437,-1.0876 -0.19964,-0.3703 -0.4784,-0.89467 -0.61946,-1.16528 -0.70651,-1.35533 -0.99388,-1.82276 -1.28806,-2.09512 -0.32398,-0.29994 -0.77465,-0.51008 -1.22463,-0.57101 l -0.27292,-0.037 0.014,-1.09554 0.014,-1.09554 2.1234,-0.0149 c 1.16787,-0.008 2.37976,0.008 2.69309,0.0361 0.82946,0.0743 1.67666,0.3816 2.25197,0.81691 0.53497,0.40479 1.12562,1.07689 1.35715,1.5443 0.0423,0.0855 0.1276,0.24387 0.18949,0.35203 0.21184,0.37023 0.44287,0.83912 0.43258,0.87798 -0.006,0.0214 0.0105,0.0388 0.0359,0.0388 0.0254,0 0.0831,0.0874 0.12826,0.19421 0.0452,0.10682 0.15541,0.32239 0.24501,0.47906 0.18356,0.32096 0.42459,0.76853 0.82278,1.52781 0.14938,0.28485 0.28907,0.54121 0.31042,0.56969 0.0213,0.0285 0.21926,0.40138 0.43979,0.82865 0.22052,0.42727 0.41829,0.80016 0.43948,0.82864 0.0212,0.0285 0.22007,0.40137 0.44195,0.82864 0.22187,0.42727 0.42073,0.80016 0.4419,0.82865 0.10199,0.13725 0.56182,1.07692 0.68427,1.39833 0.35641,0.93553 0.50701,2.02002 0.40813,2.9391 -0.11502,1.06911 -0.31765,1.70263 -0.90692,2.83551 -0.57956,1.11419 -0.59947,1.15201 -0.74975,1.42423 -0.21134,0.38283 -0.57784,1.06754 -0.90094,1.68318 -0.15697,0.29909 -0.34887,0.66033 -0.42645,0.80275 -0.0776,0.14242 -0.24011,0.44539 -0.36119,0.67327 -0.12108,0.22788 -0.39519,0.7406 -0.60914,1.13939 -0.21394,0.39878 -0.48783,0.9115 -0.60864,1.13938 -0.60656,1.14418 -0.66428,1.23633 -1.07707,1.71956 -0.51583,0.60385 -1.37323,1.13413 -2.21211,1.36813 -0.39829,0.1111 -0.51502,0.11634 -3.01678,0.13543 l -2.60246,0.0199 z"
     id="path192" /><path
     style="fill:#00cd44;stroke-width:0.0517902;fill-opacity:1"
     d="m 584.53206,198.38082 c -0.82754,-0.15115 -1.61176,-0.53587 -2.25933,-1.1084 -0.33306,-0.29446 -0.76448,-0.87969 -1.05523,-1.43145 -0.13509,-0.25636 -0.2627,-0.48941 -0.28359,-0.5179 -0.0209,-0.0285 -0.21933,-0.40137 -0.44098,-0.82864 -0.22166,-0.42727 -0.41966,-0.80016 -0.44002,-0.82865 -0.0204,-0.0285 -0.21941,-0.40137 -0.44236,-0.82864 -0.22295,-0.42727 -0.47054,-0.88755 -0.5502,-1.02286 -0.0797,-0.1353 -0.1322,-0.246 -0.11676,-0.246 0.0154,0 -0.0164,-0.0641 -0.0708,-0.14242 -0.0544,-0.0783 -0.13324,-0.21234 -0.17518,-0.2978 -0.0419,-0.0855 -0.14704,-0.28355 -0.23355,-0.44021 -0.0865,-0.15667 -0.28095,-0.5179 -0.43207,-0.80275 -0.15112,-0.28485 -0.4349,-0.8159 -0.63063,-1.18012 -0.78255,-1.45622 -1.00421,-2.13873 -1.10674,-3.40787 -0.0727,-0.89998 0.1693,-2.16993 0.59216,-3.10723 0.10201,-0.22612 0.67169,-1.31193 0.94872,-1.80828 0.0716,-0.12818 0.25906,-0.47777 0.4167,-0.77686 0.15764,-0.29908 0.39408,-0.73638 0.52543,-0.97177 0.13135,-0.23539 0.23881,-0.44095 0.23881,-0.45681 0,-0.0159 0.13725,-0.27772 0.30499,-0.58193 0.36654,-0.66475 0.50226,-0.91744 0.96463,-1.79606 0.70732,-1.34412 1.2302,-2.28369 1.39783,-2.51183 0.44713,-0.60854 1.20781,-1.20377 1.91414,-1.49781 0.76096,-0.31679 0.84857,-0.32526 3.64011,-0.35165 l 2.55067,-0.0241 v 1.1091 1.10911 l -0.33909,0.0625 c -0.47539,0.0876 -0.85715,0.27009 -1.16254,0.55575 -0.30227,0.28274 -0.43794,0.49814 -1.07348,1.70434 -0.25514,0.48423 -0.51007,0.962 -0.56651,1.06169 -0.0564,0.0997 -0.2175,0.40267 -0.3579,0.67328 -0.1404,0.2706 -0.27474,0.50626 -0.29854,0.52369 -0.0238,0.0174 -0.0369,0.0407 -0.0291,0.0518 0.008,0.0111 -0.0691,0.17159 -0.17085,0.35674 -0.10178,0.18515 -0.27774,0.51143 -0.39102,0.72506 -0.11329,0.21364 -0.28766,0.53992 -0.3875,0.72507 -0.0998,0.18515 -0.30437,0.56969 -0.45451,0.85454 -0.15014,0.28484 -0.43535,0.81719 -0.63381,1.183 -0.4935,0.90963 -0.64575,1.25945 -0.76446,1.7565 -0.30387,1.27222 -0.13106,2.27368 0.63668,3.68964 0.16989,0.31333 0.33207,0.59883 0.36041,0.63443 0.0283,0.0356 0.0354,0.0647 0.0158,0.0647 -0.0197,0 0.009,0.0641 0.0635,0.14242 0.0546,0.0783 0.23416,0.39879 0.39898,0.71212 0.16483,0.31333 0.3632,0.68622 0.44083,0.82864 0.0776,0.14242 0.38029,0.71341 0.67257,1.26886 0.29229,0.55545 0.57206,1.07983 0.62174,1.16528 0.0497,0.0855 0.26081,0.48165 0.46921,0.88043 0.20839,0.39879 0.43879,0.82994 0.51198,0.95812 0.0732,0.12818 0.22626,0.41524 0.34015,0.6379 0.22438,0.43868 0.69742,0.96432 1.00956,1.12182 0.2456,0.12393 0.7312,0.2601 0.92751,0.2601 h 0.16035 v 1.11349 1.11349 l -2.44709,-0.005 c -1.74487,-0.003 -2.55112,-0.0237 -2.80962,-0.0709 z m 9.81424,-1.01061 c 0,-0.82994 0.0156,-1.09648 0.0647,-1.10979 0.0356,-0.01 0.20413,-0.0438 0.37449,-0.0758 0.78149,-0.14711 1.23818,-0.54515 1.76094,-1.53478 0.19561,-0.3703 0.41248,-0.77815 0.48193,-0.90633 0.0694,-0.12818 0.22531,-0.4195 0.34636,-0.64738 0.12104,-0.22787 0.31935,-0.60076 0.44069,-0.82864 0.12133,-0.22788 0.2469,-0.43144 0.27902,-0.45237 0.0321,-0.0209 0.0408,-0.0384 0.0193,-0.0388 -0.0447,-9.1e-4 0.4231,-0.89051 0.49367,-0.93881 0.0255,-0.0174 0.0455,-0.0524 0.0445,-0.0777 -10e-4,-0.0253 0.2213,-0.4655 0.49403,-0.97822 0.27272,-0.51272 0.61296,-1.15363 0.75608,-1.42423 0.14311,-0.2706 0.35003,-0.65153 0.45982,-0.8465 0.54029,-0.95957 0.74154,-1.65509 0.73662,-2.54576 -0.006,-1.11552 -0.089,-1.35768 -1.133,-3.31457 -0.0912,-0.17091 -0.27705,-0.52049 -0.41303,-0.77686 -0.57995,-1.09336 -0.72237,-1.36047 -0.85605,-1.60549 -0.0777,-0.14242 -0.24091,-0.4454 -0.36267,-0.67327 -0.12177,-0.22788 -0.38473,-0.7173 -0.58437,-1.0876 -0.19964,-0.3703 -0.4784,-0.89467 -0.61946,-1.16528 -0.70651,-1.35533 -0.99388,-1.82276 -1.28806,-2.09512 -0.32398,-0.29994 -0.77465,-0.51008 -1.22463,-0.57101 l -0.27292,-0.037 0.014,-1.09554 0.014,-1.09554 2.1234,-0.0149 c 1.16787,-0.008 2.37976,0.008 2.69309,0.0361 0.82946,0.0743 1.67666,0.3816 2.25197,0.81691 0.53497,0.40479 1.12562,1.07689 1.35715,1.5443 0.0423,0.0855 0.1276,0.24387 0.18949,0.35203 0.21184,0.37023 0.44287,0.83912 0.43258,0.87798 -0.006,0.0214 0.0105,0.0388 0.0359,0.0388 0.0254,0 0.0831,0.0874 0.12826,0.19421 0.0452,0.10682 0.15541,0.32239 0.24501,0.47906 0.18356,0.32096 0.42459,0.76853 0.82278,1.52781 0.14938,0.28485 0.28907,0.54121 0.31042,0.56969 0.0213,0.0285 0.21926,0.40138 0.43979,0.82865 0.22052,0.42727 0.41829,0.80016 0.43948,0.82864 0.0212,0.0285 0.22007,0.40137 0.44195,0.82864 0.22187,0.42727 0.42073,0.80016 0.4419,0.82865 0.10199,0.13725 0.56182,1.07692 0.68427,1.39833 0.35641,0.93553 0.50701,2.02002 0.40813,2.9391 -0.11502,1.06911 -0.31765,1.70263 -0.90692,2.83551 -0.57956,1.11419 -0.59947,1.15201 -0.74975,1.42423 -0.21134,0.38283 -0.57784,1.06754 -0.90094,1.68318 -0.15697,0.29909 -0.34887,0.66033 -0.42645,0.80275 -0.0776,0.14242 -0.24011,0.44539 -0.36119,0.67327 -0.12108,0.22788 -0.39519,0.7406 -0.60914,1.13939 -0.21394,0.39878 -0.48783,0.9115 -0.60864,1.13938 -0.60656,1.14418 -0.66428,1.23633 -1.07707,1.71956 -0.51583,0.60385 -1.37323,1.13413 -2.21211,1.36813 -0.39829,0.1111 -0.51502,0.11634 -3.01678,0.13543 l -2.60246,0.0199 z"
     id="path190" /></svg>
